<svg id="kity_svg_6" xmlns="http://www.w3.org/2000/svg" xmlns:xlink="http://www.w3.org/1999/xlink" version="1.1" width="696" height="2034" style="background: rgb(251, 251, 251); visibility: visible;" viewBox="0 0 696 2034"><defs id="kity_defs_7"><linearGradient id="kity_linearGradient_17" x1="0" y1="0" x2="0" y2="1"><stop id="kity_stop_18" offset="0" stop-color="rgb(255, 255, 255)"></stop><stop id="kity_stop_19" offset="1" stop-color="rgb(204, 204, 204)"></stop></linearGradient><marker id="kity_marker_2" orient="auto" refX="6" refY="0" viewBox="-7 -7 14 14" markerWidth="7" markerHeight="7" markerUnits="userSpaceOnUse"><path id="kity_path_3" fill="rgb(115, 161, 191)" stroke="none" d="M6,0A6,6,0,1,1,-6,0A6,6,0,1,1,6,0"></path></marker></defs><g id="kity_g_8"><g id="minder1" text-rendering="optimize-speed"><g id="minder_connect_group1"><path id="kity_path_31" fill="none" stroke="rgb(115, 161, 191)" stroke-width="1" d="M155.00000547617674,1308.500001333654A150.5,0,0,0,1,305.50000547617674,1308.500001333654"></path><path id="kity_path_47" fill="none" stroke="rgb(115, 161, 191)" stroke-width="1" d="M403.50000547617674,1308.500001333654C411.50000547617674,1308.500001333654,411.50000547617674,626.5000013336539,419.50000547617674,626.5000013336539"></path><path id="kity_path_71" fill="none" stroke="rgb(115, 161, 191)" stroke-width="1" d="M403.50000547617674,1308.500001333654C411.50000547617674,1308.500001333654,411.50000547617674,1510.500001333654,419.50000547617674,1510.500001333654"></path><path id="kity_path_79" fill="none" stroke="rgb(115, 161, 191)" stroke-width="1" d="M403.50000547617674,1308.500001333654C411.50000547617674,1308.500001333654,411.50000547617674,1887.500001333654,419.50000547617674,1887.500001333654"></path><path id="kity_path_87" fill="none" stroke="rgb(115, 161, 191)" stroke-width="1" d="M403.50000547617674,1308.500001333654C411.50000547617674,1308.500001333654,411.50000547617674,1991.500001333654,419.50000547617674,1991.500001333654"></path><path id="kity_path_95" fill="none" stroke="rgb(115, 161, 191)" stroke-width="1" d="M477.50000547617674,626.5000013336539C485.50000547617674,626.5000013336539,485.50000547617674,197.50000133365393,493.50000547617674,197.50000133365393"></path><path id="kity_path_103" fill="none" stroke="rgb(115, 161, 191)" stroke-width="1" d="M477.50000547617674,626.5000013336539C485.50000547617674,626.5000013336539,485.50000547617674,457.5000013336539,493.50000547617674,457.5000013336539"></path><path id="kity_path_119" fill="none" stroke="rgb(115, 161, 191)" stroke-width="1" d="M477.50000547617674,626.5000013336539C485.50000547617674,626.5000013336539,485.50000547617674,613.5000013336539,493.50000547617674,613.5000013336539"></path><path id="kity_path_127" fill="none" stroke="rgb(115, 161, 191)" stroke-width="1" d="M477.50000547617674,626.5000013336539C485.50000547617674,626.5000013336539,485.50000547617674,821.5000013336539,493.50000547617674,821.5000013336539"></path><path id="kity_path_135" fill="none" stroke="rgb(115, 161, 191)" stroke-width="1" d="M477.50000547617674,626.5000013336539C485.50000547617674,626.5000013336539,485.50000547617674,1055.500001333654,493.50000547617674,1055.500001333654"></path><path id="kity_path_143" fill="none" stroke="rgb(115, 161, 191)" stroke-width="1" d="M551.5000054761767,197.50000133365393C559.5000054761767,197.50000133365393,559.5000054761767,28.500001333653927,567.5000054761767,28.500001333653927"></path><path id="kity_path_151" fill="none" stroke="rgb(115, 161, 191)" stroke-width="1" d="M551.5000054761767,197.50000133365393C559.5000054761767,197.50000133365393,559.5000054761767,54.50000133365393,567.5000054761767,54.50000133365393"></path><path id="kity_path_159" fill="none" stroke="rgb(115, 161, 191)" stroke-width="1" d="M551.5000054761767,197.50000133365393C559.5000054761767,197.50000133365393,559.5000054761767,80.50000133365393,567.5000054761767,80.50000133365393"></path><path id="kity_path_167" fill="none" stroke="rgb(115, 161, 191)" stroke-width="1" d="M551.5000054761767,197.50000133365393C559.5000054761767,197.50000133365393,559.5000054761767,106.50000133365393,567.5000054761767,106.50000133365393"></path><path id="kity_path_175" fill="none" stroke="rgb(115, 161, 191)" stroke-width="1" d="M551.5000054761767,197.50000133365393C559.5000054761767,197.50000133365393,559.5000054761767,132.50000133365393,567.5000054761767,132.50000133365393"></path><path id="kity_path_183" fill="none" stroke="rgb(115, 161, 191)" stroke-width="1" d="M551.5000054761767,197.50000133365393C559.5000054761767,197.50000133365393,559.5000054761767,158.50000133365393,567.5000054761767,158.50000133365393"></path><path id="kity_path_191" fill="none" stroke="rgb(115, 161, 191)" stroke-width="1" d="M551.5000054761767,197.50000133365393C559.5000054761767,197.50000133365393,559.5000054761767,184.50000133365393,567.5000054761767,184.50000133365393"></path><path id="kity_path_199" fill="none" stroke="rgb(115, 161, 191)" stroke-width="1" d="M551.5000054761767,197.50000133365393C559.5000054761767,197.50000133365393,559.5000054761767,210.50000133365393,567.5000054761767,210.50000133365393"></path><path id="kity_path_207" fill="none" stroke="rgb(115, 161, 191)" stroke-width="1" d="M551.5000054761767,197.50000133365393C559.5000054761767,197.50000133365393,559.5000054761767,236.50000133365393,567.5000054761767,236.50000133365393"></path><path id="kity_path_231" fill="none" stroke="rgb(115, 161, 191)" stroke-width="1" d="M551.5000054761767,197.50000133365393C559.5000054761767,197.50000133365393,559.5000054761767,262.5000013336539,567.5000054761767,262.5000013336539"></path><path id="kity_path_239" fill="none" stroke="rgb(115, 161, 191)" stroke-width="1" d="M551.5000054761767,197.50000133365393C559.5000054761767,197.50000133365393,559.5000054761767,288.5000013336539,567.5000054761767,288.5000013336539"></path><path id="kity_path_247" fill="none" stroke="rgb(115, 161, 191)" stroke-width="1" d="M551.5000054761767,197.50000133365393C559.5000054761767,197.50000133365393,559.5000054761767,314.5000013336539,567.5000054761767,314.5000013336539"></path><path id="kity_path_255" fill="none" stroke="rgb(115, 161, 191)" stroke-width="1" d="M551.5000054761767,197.50000133365393C559.5000054761767,197.50000133365393,559.5000054761767,340.5000013336539,567.5000054761767,340.5000013336539"></path><path id="kity_path_263" fill="none" stroke="rgb(115, 161, 191)" stroke-width="1" d="M551.5000054761767,197.50000133365393C559.5000054761767,197.50000133365393,559.5000054761767,366.5000013336539,567.5000054761767,366.5000013336539"></path><path id="kity_path_271" fill="none" stroke="rgb(115, 161, 191)" stroke-width="1" d="M602.5000054761767,457.5000013336539C610.5000054761767,457.5000013336539,610.5000054761767,392.5000013336539,618.5000054761767,392.5000013336539"></path><path id="kity_path_279" fill="none" stroke="rgb(115, 161, 191)" stroke-width="1" d="M602.5000054761767,457.5000013336539C610.5000054761767,457.5000013336539,610.5000054761767,418.5000013336539,618.5000054761767,418.5000013336539"></path><path id="kity_path_287" fill="none" stroke="rgb(115, 161, 191)" stroke-width="1" d="M602.5000054761767,457.5000013336539C610.5000054761767,457.5000013336539,610.5000054761767,444.5000013336539,618.5000054761767,444.5000013336539"></path><path id="kity_path_295" fill="none" stroke="rgb(115, 161, 191)" stroke-width="1" d="M602.5000054761767,457.5000013336539C610.5000054761767,457.5000013336539,610.5000054761767,470.5000013336539,618.5000054761767,470.5000013336539"></path><path id="kity_path_303" fill="none" stroke="rgb(115, 161, 191)" stroke-width="1" d="M602.5000054761767,457.5000013336539C610.5000054761767,457.5000013336539,610.5000054761767,496.5000013336539,618.5000054761767,496.5000013336539"></path><path id="kity_path_311" fill="none" stroke="rgb(115, 161, 191)" stroke-width="1" d="M602.5000054761767,457.5000013336539C610.5000054761767,457.5000013336539,610.5000054761767,522.5000013336539,618.5000054761767,522.5000013336539"></path><path id="kity_path_327" fill="none" stroke="rgb(115, 161, 191)" stroke-width="1" d="M570.5000054761767,1055.500001333654C578.5000054761767,1055.500001333654,578.5000054761767,964.5000013336539,586.5000054761767,964.5000013336539"></path><path id="kity_path_335" fill="none" stroke="rgb(115, 161, 191)" stroke-width="1" d="M570.5000054761767,1055.500001333654C578.5000054761767,1055.500001333654,578.5000054761767,990.5000013336539,586.5000054761767,990.5000013336539"></path><path id="kity_path_343" fill="none" stroke="rgb(115, 161, 191)" stroke-width="1" d="M570.5000054761767,1055.500001333654C578.5000054761767,1055.500001333654,578.5000054761767,1016.5000013336539,586.5000054761767,1016.5000013336539"></path><path id="kity_path_351" fill="none" stroke="rgb(115, 161, 191)" stroke-width="1" d="M570.5000054761767,1055.500001333654C578.5000054761767,1055.500001333654,578.5000054761767,1042.500001333654,586.5000054761767,1042.500001333654"></path><path id="kity_path_359" fill="none" stroke="rgb(115, 161, 191)" stroke-width="1" d="M570.5000054761767,1055.500001333654C578.5000054761767,1055.500001333654,578.5000054761767,1068.500001333654,586.5000054761767,1068.500001333654"></path><path id="kity_path_367" fill="none" stroke="rgb(115, 161, 191)" stroke-width="1" d="M570.5000054761767,1055.500001333654C578.5000054761767,1055.500001333654,578.5000054761767,1094.500001333654,586.5000054761767,1094.500001333654"></path><path id="kity_path_375" fill="none" stroke="rgb(115, 161, 191)" stroke-width="1" d="M570.5000054761767,1055.500001333654C578.5000054761767,1055.500001333654,578.5000054761767,1120.500001333654,586.5000054761767,1120.500001333654"></path><path id="kity_path_383" fill="none" stroke="rgb(115, 161, 191)" stroke-width="1" d="M570.5000054761767,1055.500001333654C578.5000054761767,1055.500001333654,578.5000054761767,1146.500001333654,586.5000054761767,1146.500001333654"></path><path id="kity_path_391" fill="none" stroke="rgb(115, 161, 191)" stroke-width="1" d="M539.5000054761767,821.5000013336539C547.5000054761767,821.5000013336539,547.5000054761767,704.5000013336539,555.5000054761767,704.5000013336539"></path><path id="kity_path_399" fill="none" stroke="rgb(115, 161, 191)" stroke-width="1" d="M539.5000054761767,821.5000013336539C547.5000054761767,821.5000013336539,547.5000054761767,730.5000013336539,555.5000054761767,730.5000013336539"></path><path id="kity_path_407" fill="none" stroke="rgb(115, 161, 191)" stroke-width="1" d="M539.5000054761767,821.5000013336539C547.5000054761767,821.5000013336539,547.5000054761767,782.5000013336539,555.5000054761767,782.5000013336539"></path><path id="kity_path_415" fill="none" stroke="rgb(115, 161, 191)" stroke-width="1" d="M539.5000054761767,821.5000013336539C547.5000054761767,821.5000013336539,547.5000054761767,808.5000013336539,555.5000054761767,808.5000013336539"></path><path id="kity_path_423" fill="none" stroke="rgb(115, 161, 191)" stroke-width="1" d="M539.5000054761767,821.5000013336539C547.5000054761767,821.5000013336539,547.5000054761767,834.5000013336539,555.5000054761767,834.5000013336539"></path><path id="kity_path_431" fill="none" stroke="rgb(115, 161, 191)" stroke-width="1" d="M539.5000054761767,821.5000013336539C547.5000054761767,821.5000013336539,547.5000054761767,860.5000013336539,555.5000054761767,860.5000013336539"></path><path id="kity_path_439" fill="none" stroke="rgb(115, 161, 191)" stroke-width="1" d="M539.5000054761767,821.5000013336539C547.5000054761767,821.5000013336539,547.5000054761767,756.5000013336539,555.5000054761767,756.5000013336539"></path><path id="kity_path_447" fill="none" stroke="rgb(115, 161, 191)" stroke-width="1" d="M539.5000054761767,821.5000013336539C547.5000054761767,821.5000013336539,547.5000054761767,886.5000013336539,555.5000054761767,886.5000013336539"></path><path id="kity_path_455" fill="none" stroke="rgb(115, 161, 191)" stroke-width="1" d="M539.5000054761767,821.5000013336539C547.5000054761767,821.5000013336539,547.5000054761767,912.5000013336539,555.5000054761767,912.5000013336539"></path><path id="kity_path_463" fill="none" stroke="rgb(115, 161, 191)" stroke-width="1" d="M539.5000054761767,821.5000013336539C547.5000054761767,821.5000013336539,547.5000054761767,938.5000013336539,555.5000054761767,938.5000013336539"></path><path id="kity_path_471" fill="none" stroke="rgb(115, 161, 191)" stroke-width="1" d="M551.5000054761767,613.5000013336539C559.5000054761767,613.5000013336539,559.5000054761767,548.5000013336539,567.5000054761767,548.5000013336539"></path><path id="kity_path_479" fill="none" stroke="rgb(115, 161, 191)" stroke-width="1" d="M551.5000054761767,613.5000013336539C559.5000054761767,613.5000013336539,559.5000054761767,574.5000013336539,567.5000054761767,574.5000013336539"></path><path id="kity_path_487" fill="none" stroke="rgb(115, 161, 191)" stroke-width="1" d="M551.5000054761767,613.5000013336539C559.5000054761767,613.5000013336539,559.5000054761767,600.5000013336539,567.5000054761767,600.5000013336539"></path><path id="kity_path_495" fill="none" stroke="rgb(115, 161, 191)" stroke-width="1" d="M551.5000054761767,613.5000013336539C559.5000054761767,613.5000013336539,559.5000054761767,626.5000013336539,567.5000054761767,626.5000013336539"></path><path id="kity_path_503" fill="none" stroke="rgb(115, 161, 191)" stroke-width="1" d="M551.5000054761767,613.5000013336539C559.5000054761767,613.5000013336539,559.5000054761767,652.5000013336539,567.5000054761767,652.5000013336539"></path><path id="kity_path_511" fill="none" stroke="rgb(115, 161, 191)" stroke-width="1" d="M551.5000054761767,613.5000013336539C559.5000054761767,613.5000013336539,559.5000054761767,678.5000013336539,567.5000054761767,678.5000013336539"></path><path id="kity_path_519" fill="none" stroke="rgb(115, 161, 191)" stroke-width="1" d="M477.50000547617674,1510.500001333654C485.50000547617674,1510.500001333654,485.50000547617674,1263.500001333654,493.50000547617674,1263.500001333654"></path><path id="kity_path_527" fill="none" stroke="rgb(115, 161, 191)" stroke-width="1" d="M477.50000547617674,1510.500001333654C485.50000547617674,1510.500001333654,485.50000547617674,1419.500001333654,493.50000547617674,1419.500001333654"></path><path id="kity_path_535" fill="none" stroke="rgb(115, 161, 191)" stroke-width="1" d="M477.50000547617674,1510.500001333654C485.50000547617674,1510.500001333654,485.50000547617674,1588.500001333654,493.50000547617674,1588.500001333654"></path><path id="kity_path_543" fill="none" stroke="rgb(115, 161, 191)" stroke-width="1" d="M477.50000547617674,1510.500001333654C485.50000547617674,1510.500001333654,485.50000547617674,1757.500001333654,493.50000547617674,1757.500001333654"></path><path id="kity_path_551" fill="none" stroke="rgb(115, 161, 191)" stroke-width="1" d="M551.5000054761767,1263.500001333654C559.5000054761767,1263.500001333654,559.5000054761767,1172.500001333654,567.5000054761767,1172.500001333654"></path><path id="kity_path_559" fill="none" stroke="rgb(115, 161, 191)" stroke-width="1" d="M551.5000054761767,1263.500001333654C559.5000054761767,1263.500001333654,559.5000054761767,1198.500001333654,567.5000054761767,1198.500001333654"></path><path id="kity_path_567" fill="none" stroke="rgb(115, 161, 191)" stroke-width="1" d="M551.5000054761767,1263.500001333654C559.5000054761767,1263.500001333654,559.5000054761767,1224.500001333654,567.5000054761767,1224.500001333654"></path><path id="kity_path_575" fill="none" stroke="rgb(115, 161, 191)" stroke-width="1" d="M551.5000054761767,1263.500001333654C559.5000054761767,1263.500001333654,559.5000054761767,1250.500001333654,567.5000054761767,1250.500001333654"></path><path id="kity_path_583" fill="none" stroke="rgb(115, 161, 191)" stroke-width="1" d="M551.5000054761767,1263.500001333654C559.5000054761767,1263.500001333654,559.5000054761767,1276.500001333654,567.5000054761767,1276.500001333654"></path><path id="kity_path_591" fill="none" stroke="rgb(115, 161, 191)" stroke-width="1" d="M551.5000054761767,1263.500001333654C559.5000054761767,1263.500001333654,559.5000054761767,1302.500001333654,567.5000054761767,1302.500001333654"></path><path id="kity_path_599" fill="none" stroke="rgb(115, 161, 191)" stroke-width="1" d="M551.5000054761767,1263.500001333654C559.5000054761767,1263.500001333654,559.5000054761767,1328.500001333654,567.5000054761767,1328.500001333654"></path><path id="kity_path_607" fill="none" stroke="rgb(115, 161, 191)" stroke-width="1" d="M551.5000054761767,1263.500001333654C559.5000054761767,1263.500001333654,559.5000054761767,1354.500001333654,567.5000054761767,1354.500001333654"></path><path id="kity_path_615" fill="none" stroke="rgb(115, 161, 191)" stroke-width="1" d="M551.5000054761767,1419.500001333654C559.5000054761767,1419.500001333654,559.5000054761767,1380.500001333654,567.5000054761767,1380.500001333654"></path><path id="kity_path_623" fill="none" stroke="rgb(115, 161, 191)" stroke-width="1" d="M551.5000054761767,1419.500001333654C559.5000054761767,1419.500001333654,559.5000054761767,1406.500001333654,567.5000054761767,1406.500001333654"></path><path id="kity_path_631" fill="none" stroke="rgb(115, 161, 191)" stroke-width="1" d="M551.5000054761767,1419.500001333654C559.5000054761767,1419.500001333654,559.5000054761767,1432.500001333654,567.5000054761767,1432.500001333654"></path><path id="kity_path_639" fill="none" stroke="rgb(115, 161, 191)" stroke-width="1" d="M551.5000054761767,1419.500001333654C559.5000054761767,1419.500001333654,559.5000054761767,1458.500001333654,567.5000054761767,1458.500001333654"></path><path id="kity_path_647" fill="none" stroke="rgb(115, 161, 191)" stroke-width="1" d="M551.5000054761767,1588.500001333654C559.5000054761767,1588.500001333654,559.5000054761767,1484.500001333654,567.5000054761767,1484.500001333654"></path><path id="kity_path_655" fill="none" stroke="rgb(115, 161, 191)" stroke-width="1" d="M551.5000054761767,1588.500001333654C559.5000054761767,1588.500001333654,559.5000054761767,1510.500001333654,567.5000054761767,1510.500001333654"></path><path id="kity_path_663" fill="none" stroke="rgb(115, 161, 191)" stroke-width="1" d="M551.5000054761767,1588.500001333654C559.5000054761767,1588.500001333654,559.5000054761767,1536.500001333654,567.5000054761767,1536.500001333654"></path><path id="kity_path_671" fill="none" stroke="rgb(115, 161, 191)" stroke-width="1" d="M551.5000054761767,1588.500001333654C559.5000054761767,1588.500001333654,559.5000054761767,1562.500001333654,567.5000054761767,1562.500001333654"></path><path id="kity_path_679" fill="none" stroke="rgb(115, 161, 191)" stroke-width="1" d="M551.5000054761767,1588.500001333654C559.5000054761767,1588.500001333654,559.5000054761767,1588.500001333654,567.5000054761767,1588.500001333654"></path><path id="kity_path_687" fill="none" stroke="rgb(115, 161, 191)" stroke-width="1" d="M551.5000054761767,1588.500001333654C559.5000054761767,1588.500001333654,559.5000054761767,1614.500001333654,567.5000054761767,1614.500001333654"></path><path id="kity_path_695" fill="none" stroke="rgb(115, 161, 191)" stroke-width="1" d="M551.5000054761767,1588.500001333654C559.5000054761767,1588.500001333654,559.5000054761767,1640.500001333654,567.5000054761767,1640.500001333654"></path><path id="kity_path_703" fill="none" stroke="rgb(115, 161, 191)" stroke-width="1" d="M551.5000054761767,1588.500001333654C559.5000054761767,1588.500001333654,559.5000054761767,1666.500001333654,567.5000054761767,1666.500001333654"></path><path id="kity_path_711" fill="none" stroke="rgb(115, 161, 191)" stroke-width="1" d="M551.5000054761767,1588.500001333654C559.5000054761767,1588.500001333654,559.5000054761767,1692.500001333654,567.5000054761767,1692.500001333654"></path><path id="kity_path_719" fill="none" stroke="rgb(115, 161, 191)" stroke-width="1" d="M551.5000054761767,1757.500001333654C559.5000054761767,1757.500001333654,559.5000054761767,1718.500001333654,567.5000054761767,1718.500001333654"></path><path id="kity_path_727" fill="none" stroke="rgb(115, 161, 191)" stroke-width="1" d="M551.5000054761767,1757.500001333654C559.5000054761767,1757.500001333654,559.5000054761767,1744.500001333654,567.5000054761767,1744.500001333654"></path><path id="kity_path_735" fill="none" stroke="rgb(115, 161, 191)" stroke-width="1" d="M551.5000054761767,1757.500001333654C559.5000054761767,1757.500001333654,559.5000054761767,1770.500001333654,567.5000054761767,1770.500001333654"></path><path id="kity_path_743" fill="none" stroke="rgb(115, 161, 191)" stroke-width="1" d="M551.5000054761767,1757.500001333654C559.5000054761767,1757.500001333654,559.5000054761767,1796.500001333654,567.5000054761767,1796.500001333654"></path><path id="kity_path_751" fill="none" stroke="rgb(115, 161, 191)" stroke-width="1" d="M477.50000547617674,1887.500001333654C485.50000547617674,1887.500001333654,485.50000547617674,1822.500001333654,493.50000547617674,1822.500001333654"></path><path id="kity_path_759" fill="none" stroke="rgb(115, 161, 191)" stroke-width="1" d="M477.50000547617674,1887.500001333654C485.50000547617674,1887.500001333654,485.50000547617674,1848.500001333654,493.50000547617674,1848.500001333654"></path><path id="kity_path_767" fill="none" stroke="rgb(115, 161, 191)" stroke-width="1" d="M477.50000547617674,1887.500001333654C485.50000547617674,1887.500001333654,485.50000547617674,1874.500001333654,493.50000547617674,1874.500001333654"></path><path id="kity_path_775" fill="none" stroke="rgb(115, 161, 191)" stroke-width="1" d="M477.50000547617674,1887.500001333654C485.50000547617674,1887.500001333654,485.50000547617674,1900.500001333654,493.50000547617674,1900.500001333654"></path><path id="kity_path_783" fill="none" stroke="rgb(115, 161, 191)" stroke-width="1" d="M477.50000547617674,1887.500001333654C485.50000547617674,1887.500001333654,485.50000547617674,1926.500001333654,493.50000547617674,1926.500001333654"></path><path id="kity_path_791" fill="none" stroke="rgb(115, 161, 191)" stroke-width="1" d="M477.50000547617674,1887.500001333654C485.50000547617674,1887.500001333654,485.50000547617674,1952.500001333654,493.50000547617674,1952.500001333654"></path><path id="kity_path_799" fill="none" stroke="rgb(115, 161, 191)" stroke-width="1" d="M477.50000547617674,1991.500001333654C485.50000547617674,1991.500001333654,485.50000547617674,1978.500001333654,493.50000547617674,1978.500001333654"></path><path id="kity_path_807" fill="none" stroke="rgb(115, 161, 191)" stroke-width="1" d="M477.50000547617674,1991.500001333654C485.50000547617674,1991.500001333654,485.50000547617674,2004.500001333654,493.50000547617674,2004.500001333654"></path></g><g id="minder_node1"><path id="node_outline1" fill="rgb(115, 161, 191)" stroke="rgb(115, 161, 191)" d="M25.50000547617674,1294.500001333654h259a5,5,0,0,1,5,5v18a5,5,0,0,1,-5,5h-259a5,5,0,0,1,-5,-5v-18a5,5,0,0,1,5,-5z" stroke-width="3"></path><g id="node_text1" fill="white"><text id="kity_text_22" text-rendering="inherit" font-size="16" dy=".8em" y="1298.1000012978911" x="32.50000547617674">如何挖src（信息收集、了解业务）</text></g></g><g id="kity_g_12"><path id="kity_path_13" fill="none" stroke="none" d="M32.50000547617674,1308.500001333654h0v0h0z"></path></g><g id="kity_g_14"><path id="kity_path_15" fill="none" stroke="none" d="M32.50000547617674,1308.500001333654h0v0h0z"></path><path id="kity_path_16" fill="none" stroke="none"></path></g><g id="minder_node2"><g id="node_expander1" style="cursor: pointer;"><path id="kity_path_36" fill="white" stroke="gray" d="M306.50000946968794,1308.500001333654A6,6,0,1,1,294.50000946968794,1308.500001333654A6,6,0,1,1,306.50000946968794,1308.500001333654"></path><path id="kity_path_37" fill="none" stroke="gray" d="M296.00000946968794,1308.500001333654L305.00000946968794,1308.500001333654"></path></g><path id="node_outline2" fill="rgb(238, 243, 246)" stroke="rgb(115, 161, 191)" d="M310.5000098720193,1295.500001333654h90a3,3,0,0,1,3,3v20a3,3,0,0,1,-3,3h-90a3,3,0,0,1,-3,-3v-20a3,3,0,0,1,3,-3z" stroke-width="1"></path><g id="node_text2" fill="black"><text id="kity_text_33" text-rendering="inherit" font-size="14" dy=".8em" y="1299.4000013023615" x="327.5000098720193">基础架构</text></g></g><g id="minder_node4"><g id="node_expander3" style="cursor: pointer;"><path id="kity_path_52" fill="white" stroke="gray" d="M419.50001115351915,626.499991171062A6,6,0,1,1,407.50001115351915,626.499991171062A6,6,0,1,1,419.50001115351915,626.499991171062"></path><path id="kity_path_53" fill="none" stroke="gray" d="M409.00001115351915,626.499991171062L418.00001115351915,626.499991171062"></path></g><path id="node_outline4" fill="none" stroke="none" d="M424.5000113174319,617.499991171062h48a5,5,0,0,1,5,5v8a5,5,0,0,1,-5,5h-48a5,5,0,0,1,-5,-5v-8a5,5,0,0,1,5,-5z" stroke-width="3"></path><g id="node_text4" fill="black"><text id="kity_text_49" text-rendering="inherit" font-size="12" dy=".8em" y="618.6999911442399" x="424.5000113174319">运维安全</text></g></g><g id="minder_node7"><g id="node_expander6" style="cursor: pointer;"><path id="kity_path_76" fill="white" stroke="gray" d="M419.50001115351915,1510.5000043436885A6,6,0,1,1,407.50001115351915,1510.5000043436885A6,6,0,1,1,419.50001115351915,1510.5000043436885"></path><path id="kity_path_77" fill="none" stroke="gray" d="M409.00001115351915,1510.5000043436885L418.00001115351915,1510.5000043436885"></path></g><path id="node_outline7" fill="none" stroke="none" d="M424.5000113174319,1501.5000043436885h48a5,5,0,0,1,5,5v8a5,5,0,0,1,-5,5h-48a5,5,0,0,1,-5,-5v-8a5,5,0,0,1,5,-5z" stroke-width="3"></path><g id="node_text7" fill="black"><text id="kity_text_73" text-rendering="inherit" font-size="12" dy=".8em" y="1502.7000043168664" x="424.5000113174319">业务安全</text></g></g><g id="minder_node8"><g id="node_expander7" style="cursor: pointer;"><path id="kity_path_84" fill="white" stroke="gray" d="M419.50001115351915,1887.5000099614263A6,6,0,1,1,407.50001115351915,1887.5000099614263A6,6,0,1,1,419.50001115351915,1887.5000099614263"></path><path id="kity_path_85" fill="none" stroke="gray" d="M409.00001115351915,1887.5000099614263L418.00001115351915,1887.5000099614263"></path></g><path id="node_outline8" fill="none" stroke="none" d="M424.5000113174319,1878.5000099614263h48a5,5,0,0,1,5,5v8a5,5,0,0,1,-5,5h-48a5,5,0,0,1,-5,-5v-8a5,5,0,0,1,5,-5z" stroke-width="3"></path><g id="node_text8" fill="black"><text id="kity_text_81" text-rendering="inherit" font-size="12" dy=".8em" y="1879.7000099346042" x="424.5000113174319">应用安全</text></g></g><g id="minder_node9"><g id="node_expander8" style="cursor: pointer;"><path id="kity_path_92" fill="white" stroke="gray" d="M419.50001115351915,1991.500011511147A6,6,0,1,1,407.50001115351915,1991.500011511147A6,6,0,1,1,419.50001115351915,1991.500011511147"></path><path id="kity_path_93" fill="none" stroke="gray" d="M409.00001115351915,1991.500011511147L418.00001115351915,1991.500011511147"></path></g><path id="node_outline9" fill="none" stroke="none" d="M424.5000113174319,1982.500011511147h48a5,5,0,0,1,5,5v8a5,5,0,0,1,-5,5h-48a5,5,0,0,1,-5,-5v-8a5,5,0,0,1,5,-5z" stroke-width="3"></path><g id="node_text9" fill="black"><text id="kity_text_89" text-rendering="inherit" font-size="12" dy=".8em" y="1983.700011484325" x="424.5000113174319">内部安全</text></g></g><g id="minder_node10"><g id="node_expander9" style="cursor: pointer;"><path id="kity_path_100" fill="white" stroke="gray" d="M493.5000122562051,197.49998477846384A6,6,0,1,1,481.5000122562051,197.49998477846384A6,6,0,1,1,493.5000122562051,197.49998477846384"></path><path id="kity_path_101" fill="none" stroke="gray" d="M483.0000122562051,197.49998477846384L492.0000122562051,197.49998477846384"></path></g><path id="node_outline10" fill="none" stroke="none" d="M498.50001242011786,188.49998477846384h48a5,5,0,0,1,5,5v8a5,5,0,0,1,-5,5h-48a5,5,0,0,1,-5,-5v-8a5,5,0,0,1,5,-5z" stroke-width="3"></path><g id="node_text10" fill="black"><text id="kity_text_97" text-rendering="inherit" font-size="12" dy=".8em" y="189.69998475164175" x="498.50001242011786">基础服务</text></g></g><g id="minder_node11"><g id="node_expander10" style="cursor: pointer;"><path id="kity_path_108" fill="white" stroke="gray" d="M493.5000122562051,457.49998865276575A6,6,0,1,1,481.5000122562051,457.49998865276575A6,6,0,1,1,493.5000122562051,457.49998865276575"></path><path id="kity_path_109" fill="none" stroke="gray" d="M483.0000122562051,457.49998865276575L492.0000122562051,457.49998865276575"></path></g><path id="node_outline11" fill="none" stroke="none" d="M498.50001242011786,448.49998865276575h99a5,5,0,0,1,5,5v8a5,5,0,0,1,-5,5h-99a5,5,0,0,1,-5,-5v-8a5,5,0,0,1,5,-5z" stroke-width="3"></path><g id="node_text11" fill="black"><text id="kity_text_105" text-rendering="inherit" font-size="12" dy=".8em" y="449.69998862594366" x="498.50001242011786">网络\服务器&amp;设备</text></g></g><g id="minder_node13"><g id="node_expander12" style="cursor: pointer;"><path id="kity_path_124" fill="white" stroke="gray" d="M493.5000122562051,613.4999909773469A6,6,0,1,1,481.5000122562051,613.4999909773469A6,6,0,1,1,493.5000122562051,613.4999909773469"></path><path id="kity_path_125" fill="none" stroke="gray" d="M483.0000122562051,613.4999909773469L492.0000122562051,613.4999909773469"></path></g><path id="node_outline13" fill="none" stroke="none" d="M498.50001242011786,604.4999909773469h48a5,5,0,0,1,5,5v8a5,5,0,0,1,-5,5h-48a5,5,0,0,1,-5,-5v-8a5,5,0,0,1,5,-5z" stroke-width="3"></path><g id="node_text13" fill="black"><text id="kity_text_121" text-rendering="inherit" font-size="12" dy=".8em" y="605.6999909505248" x="498.50001242011786">信息泄露</text></g></g><g id="minder_node14"><g id="node_expander13" style="cursor: pointer;"><path id="kity_path_132" fill="white" stroke="gray" d="M493.5000122562051,821.4999940767884A6,6,0,1,1,481.5000122562051,821.4999940767884A6,6,0,1,1,493.5000122562051,821.4999940767884"></path><path id="kity_path_133" fill="none" stroke="gray" d="M483.0000122562051,821.4999940767884L492.0000122562051,821.4999940767884"></path></g><path id="node_outline14" fill="none" stroke="none" d="M498.50001242011786,812.4999940767884h36a5,5,0,0,1,5,5v8a5,5,0,0,1,-5,5h-36a5,5,0,0,1,-5,-5v-8a5,5,0,0,1,5,-5z" stroke-width="3"></path><g id="node_text14" fill="black"><text id="kity_text_129" text-rendering="inherit" font-size="12" dy=".8em" y="813.6999940499663" x="498.50001242011786">应用层</text></g></g><g id="minder_node15"><g id="node_expander14" style="cursor: pointer;"><path id="kity_path_140" fill="white" stroke="gray" d="M493.5000122562051,1055.4999975636601A6,6,0,1,1,481.5000122562051,1055.4999975636601A6,6,0,1,1,493.5000122562051,1055.4999975636601"></path><path id="kity_path_141" fill="none" stroke="gray" d="M483.0000122562051,1055.4999975636601L492.0000122562051,1055.4999975636601"></path></g><path id="node_outline15" fill="none" stroke="none" d="M498.50001242011786,1046.4999975636601h67a5,5,0,0,1,5,5v8a5,5,0,0,1,-5,5h-67a5,5,0,0,1,-5,-5v-8a5,5,0,0,1,5,-5z" stroke-width="3"></path><g id="node_text15" fill="black"><text id="kity_text_137" text-rendering="inherit" font-size="12" dy=".8em" y="1047.699997536838" x="498.50001242011786">Web Server</text></g></g><g id="minder_node16"><g id="node_expander15" style="cursor: pointer;" display="none"><path id="kity_path_148" fill="white" stroke="gray" d="M567.500013358891,28.4999822601676A6,6,0,1,1,555.500013358891,28.4999822601676A6,6,0,1,1,567.500013358891,28.4999822601676"></path><path id="kity_path_149" fill="none" stroke="gray"></path></g><path id="node_outline16" fill="none" stroke="none" d="M572.5000135228038,19.4999822601676h21a5,5,0,0,1,5,5v8a5,5,0,0,1,-5,5h-21a5,5,0,0,1,-5,-5v-8a5,5,0,0,1,5,-5z" stroke-width="3"></path><g id="node_text16" fill="black"><text id="kity_text_145" text-rendering="inherit" font-size="12" dy=".8em" y="20.69998223334551" x="572.5000135228038">dns</text></g></g><g id="minder_node17"><g id="node_expander16" style="cursor: pointer;" display="none"><path id="kity_path_156" fill="white" stroke="gray" d="M567.500013358891,54.49998264759779A6,6,0,1,1,555.500013358891,54.49998264759779A6,6,0,1,1,567.500013358891,54.49998264759779"></path><path id="kity_path_157" fill="none" stroke="gray"></path></g><path id="node_outline17" fill="none" stroke="none" d="M572.5000135228038,45.49998264759779h29a5,5,0,0,1,5,5v8a5,5,0,0,1,-5,5h-29a5,5,0,0,1,-5,-5v-8a5,5,0,0,1,5,-5z" stroke-width="3"></path><g id="node_text17" fill="black"><text id="kity_text_153" text-rendering="inherit" font-size="12" dy=".8em" y="46.6999826207757" x="572.5000135228038">smtp</text></g></g><g id="minder_node18"><g id="node_expander17" style="cursor: pointer;" display="none"><path id="kity_path_164" fill="white" stroke="gray" d="M567.500013358891,80.49998303502798A6,6,0,1,1,555.500013358891,80.49998303502798A6,6,0,1,1,567.500013358891,80.49998303502798"></path><path id="kity_path_165" fill="none" stroke="gray"></path></g><path id="node_outline18" fill="none" stroke="none" d="M572.5000135228038,71.49998303502798h17a5,5,0,0,1,5,5v8a5,5,0,0,1,-5,5h-17a5,5,0,0,1,-5,-5v-8a5,5,0,0,1,5,-5z" stroke-width="3"></path><g id="node_text18" fill="black"><text id="kity_text_161" text-rendering="inherit" font-size="12" dy=".8em" y="72.69998300820589" x="572.5000135228038">ftp</text></g></g><g id="minder_node19"><g id="node_expander18" style="cursor: pointer;" display="none"><path id="kity_path_172" fill="white" stroke="gray" d="M567.500013358891,106.49998342245817A6,6,0,1,1,555.500013358891,106.49998342245817A6,6,0,1,1,567.500013358891,106.49998342245817"></path><path id="kity_path_173" fill="none" stroke="gray"></path></g><path id="node_outline19" fill="none" stroke="none" d="M572.5000135228038,97.49998342245817h33a5,5,0,0,1,5,5v8a5,5,0,0,1,-5,5h-33a5,5,0,0,1,-5,-5v-8a5,5,0,0,1,5,-5z" stroke-width="3"></path><g id="node_text19" fill="black"><text id="kity_text_169" text-rendering="inherit" font-size="12" dy=".8em" y="98.69998339563608" x="572.5000135228038">telnet</text></g></g><g id="minder_node20"><g id="node_expander19" style="cursor: pointer;" display="none"><path id="kity_path_180" fill="white" stroke="gray" d="M567.500013358891,132.49998380988836A6,6,0,1,1,555.500013358891,132.49998380988836A6,6,0,1,1,567.500013358891,132.49998380988836"></path><path id="kity_path_181" fill="none" stroke="gray"></path></g><path id="node_outline20" fill="none" stroke="none" d="M572.5000135228038,123.49998380988836h19a5,5,0,0,1,5,5v8a5,5,0,0,1,-5,5h-19a5,5,0,0,1,-5,-5v-8a5,5,0,0,1,5,-5z" stroke-width="3"></path><g id="node_text20" fill="black"><text id="kity_text_177" text-rendering="inherit" font-size="12" dy=".8em" y="124.69998378306627" x="572.5000135228038">ssh</text></g></g><g id="minder_node21"><g id="node_expander20" style="cursor: pointer;" display="none"><path id="kity_path_188" fill="white" stroke="gray" d="M567.500013358891,158.49998419731855A6,6,0,1,1,555.500013358891,158.49998419731855A6,6,0,1,1,567.500013358891,158.49998419731855"></path><path id="kity_path_189" fill="none" stroke="gray"></path></g><path id="node_outline21" fill="none" stroke="none" d="M572.5000135228038,149.49998419731855h20a5,5,0,0,1,5,5v8a5,5,0,0,1,-5,5h-20a5,5,0,0,1,-5,-5v-8a5,5,0,0,1,5,-5z" stroke-width="3"></path><g id="node_text21" fill="black"><text id="kity_text_185" text-rendering="inherit" font-size="12" dy=".8em" y="150.69998417049646" x="572.5000135228038">vnc</text></g></g><g id="minder_node22"><g id="node_expander21" style="cursor: pointer;" display="none"><path id="kity_path_196" fill="white" stroke="gray" d="M567.500013358891,184.49998458474874A6,6,0,1,1,555.500013358891,184.49998458474874A6,6,0,1,1,567.500013358891,184.49998458474874"></path><path id="kity_path_197" fill="none" stroke="gray"></path></g><path id="node_outline22" fill="none" stroke="none" d="M572.5000135228038,175.49998458474874h32a5,5,0,0,1,5,5v8a5,5,0,0,1,-5,5h-32a5,5,0,0,1,-5,-5v-8a5,5,0,0,1,5,-5z" stroke-width="3"></path><g id="node_text22" fill="black"><text id="kity_text_193" text-rendering="inherit" font-size="12" dy=".8em" y="176.69998455792665" x="572.5000135228038">snmp</text></g></g><g id="minder_node23"><g id="node_expander22" style="cursor: pointer;" display="none"><path id="kity_path_204" fill="white" stroke="gray" d="M567.500013358891,210.49998497217894A6,6,0,1,1,555.500013358891,210.49998497217894A6,6,0,1,1,567.500013358891,210.49998497217894"></path><path id="kity_path_205" fill="none" stroke="gray"></path></g><path id="node_outline23" fill="none" stroke="none" d="M572.5000135228038,201.49998497217894h24a5,5,0,0,1,5,5v8a5,5,0,0,1,-5,5h-24a5,5,0,0,1,-5,-5v-8a5,5,0,0,1,5,-5z" stroke-width="3"></path><g id="node_text23" fill="black"><text id="kity_text_201" text-rendering="inherit" font-size="12" dy=".8em" y="202.69998494535685" x="572.5000135228038">smb</text></g></g><g id="minder_node24"><g id="node_expander23" style="cursor: pointer;" display="none"><path id="kity_path_212" fill="white" stroke="gray" d="M567.500013358891,236.49998535960913A6,6,0,1,1,555.500013358891,236.49998535960913A6,6,0,1,1,567.500013358891,236.49998535960913"></path><path id="kity_path_213" fill="none" stroke="gray"></path></g><path id="node_outline24" fill="none" stroke="none" d="M572.5000135228038,227.49998535960913h52a5,5,0,0,1,5,5v8a5,5,0,0,1,-5,5h-52a5,5,0,0,1,-5,-5v-8a5,5,0,0,1,5,-5z" stroke-width="3"></path><g id="node_text24" fill="black"><text id="kity_text_209" text-rendering="inherit" font-size="12" dy=".8em" y="228.69998533278704" x="572.5000135228038">activemq</text></g></g><g id="minder_node27"><g id="node_expander26" style="cursor: pointer;" display="none"><path id="kity_path_236" fill="white" stroke="gray" d="M567.500013358891,262.4999857470393A6,6,0,1,1,555.500013358891,262.4999857470393A6,6,0,1,1,567.500013358891,262.4999857470393"></path><path id="kity_path_237" fill="none" stroke="gray"></path></g><path id="node_outline27" fill="none" stroke="none" d="M572.5000135228038,253.49998574703932h45a5,5,0,0,1,5,5v8a5,5,0,0,1,-5,5h-45a5,5,0,0,1,-5,-5v-8a5,5,0,0,1,5,-5z" stroke-width="3"></path><g id="node_text27" fill="black"><text id="kity_text_233" text-rendering="inherit" font-size="12" dy=".8em" y="254.69998572021723" x="572.5000135228038">hadoop</text></g></g><g id="minder_node28"><g id="node_expander27" style="cursor: pointer;" display="none"><path id="kity_path_244" fill="white" stroke="gray" d="M567.500013358891,288.4999861344695A6,6,0,1,1,555.500013358891,288.4999861344695A6,6,0,1,1,567.500013358891,288.4999861344695"></path><path id="kity_path_245" fill="none" stroke="gray"></path></g><path id="node_outline28" fill="none" stroke="none" d="M572.5000135228038,279.4999861344695h52a5,5,0,0,1,5,5v8a5,5,0,0,1,-5,5h-52a5,5,0,0,1,-5,-5v-8a5,5,0,0,1,5,-5z" stroke-width="3"></path><g id="node_text28" fill="black"><text id="kity_text_241" text-rendering="inherit" font-size="12" dy=".8em" y="280.6999861076474" x="572.5000135228038">database</text></g></g><g id="minder_node29"><g id="node_expander28" style="cursor: pointer;" display="none"><path id="kity_path_252" fill="white" stroke="gray" d="M567.500013358891,314.4999865218997A6,6,0,1,1,555.500013358891,314.4999865218997A6,6,0,1,1,567.500013358891,314.4999865218997"></path><path id="kity_path_253" fill="none" stroke="gray"></path></g><path id="node_outline29" fill="none" stroke="none" d="M572.5000135228038,305.4999865218997h25a5,5,0,0,1,5,5v8a5,5,0,0,1,-5,5h-25a5,5,0,0,1,-5,-5v-8a5,5,0,0,1,5,-5z" stroke-width="3"></path><g id="node_text29" fill="black"><text id="kity_text_249" text-rendering="inherit" font-size="12" dy=".8em" y="306.6999864950776" x="572.5000135228038">ldap</text></g></g><g id="minder_node30"><g id="node_expander29" style="cursor: pointer;" display="none"><path id="kity_path_260" fill="white" stroke="gray" d="M567.500013358891,340.4999869093299A6,6,0,1,1,555.500013358891,340.4999869093299A6,6,0,1,1,567.500013358891,340.4999869093299"></path><path id="kity_path_261" fill="none" stroke="gray"></path></g><path id="node_outline30" fill="none" stroke="none" d="M572.5000135228038,331.4999869093299h73a5,5,0,0,1,5,5v8a5,5,0,0,1,-5,5h-73a5,5,0,0,1,-5,-5v-8a5,5,0,0,1,5,-5z" stroke-width="3"></path><g id="node_text30" fill="black"><text id="kity_text_257" text-rendering="inherit" font-size="12" dy=".8em" y="332.6999868825078" x="572.5000135228038">elasticsreach</text></g></g><g id="minder_node31"><g id="node_expander30" style="cursor: pointer;" display="none"><path id="kity_path_268" fill="white" stroke="gray" d="M567.500013358891,366.4999872967601A6,6,0,1,1,555.500013358891,366.4999872967601A6,6,0,1,1,567.500013358891,366.4999872967601"></path><path id="kity_path_269" fill="none" stroke="gray"></path></g><path id="node_outline31" fill="none" stroke="none" d="M572.5000135228038,357.4999872967601h30a5,5,0,0,1,5,5v8a5,5,0,0,1,-5,5h-30a5,5,0,0,1,-5,-5v-8a5,5,0,0,1,5,-5z" stroke-width="3"></path><g id="node_text31" fill="black"><text id="kity_text_265" text-rendering="inherit" font-size="12" dy=".8em" y="358.699987269938" x="572.5000135228038">rsync</text></g></g><g id="minder_node32"><g id="node_expander31" style="cursor: pointer;" display="none"><path id="kity_path_276" fill="white" stroke="gray" d="M618.5000141188502,392.4999876841903A6,6,0,1,1,606.5000141188502,392.4999876841903A6,6,0,1,1,618.5000141188502,392.4999876841903"></path><path id="kity_path_277" fill="none" stroke="gray"></path></g><path id="node_outline32" fill="none" stroke="none" d="M623.500014282763,383.4999876841903h27a5,5,0,0,1,5,5v8a5,5,0,0,1,-5,5h-27a5,5,0,0,1,-5,-5v-8a5,5,0,0,1,5,-5z" stroke-width="3"></path><g id="node_text32" fill="black"><text id="kity_text_273" text-rendering="inherit" font-size="12" dy=".8em" y="384.6999876573682" x="623.500014282763">Bash</text></g></g><g id="minder_node33"><g id="node_expander32" style="cursor: pointer;" display="none"><path id="kity_path_284" fill="white" stroke="gray" d="M618.5000141188502,418.49998807162046A6,6,0,1,1,606.5000141188502,418.49998807162046A6,6,0,1,1,618.5000141188502,418.49998807162046"></path><path id="kity_path_285" fill="none" stroke="gray"></path></g><path id="node_outline33" fill="none" stroke="none" d="M623.500014282763,409.49998807162046h48a5,5,0,0,1,5,5v8a5,5,0,0,1,-5,5h-48a5,5,0,0,1,-5,-5v-8a5,5,0,0,1,5,-5z" stroke-width="3"></path><g id="node_text33" fill="black"><text id="kity_text_281" text-rendering="inherit" font-size="12" dy=".8em" y="410.6999880447984" x="623.500014282763">内网入口</text></g></g><g id="minder_node34"><g id="node_expander33" style="cursor: pointer;" display="none"><path id="kity_path_292" fill="white" stroke="gray" d="M618.5000141188502,444.49998845905066A6,6,0,1,1,606.5000141188502,444.49998845905066A6,6,0,1,1,618.5000141188502,444.49998845905066"></path><path id="kity_path_293" fill="none" stroke="gray"></path></g><path id="node_outline34" fill="none" stroke="none" d="M623.500014282763,435.49998845905066h48a5,5,0,0,1,5,5v8a5,5,0,0,1,-5,5h-48a5,5,0,0,1,-5,-5v-8a5,5,0,0,1,5,-5z" stroke-width="3"></path><g id="node_text34" fill="black"><text id="kity_text_289" text-rendering="inherit" font-size="12" dy=".8em" y="436.69998843222857" x="623.500014282763">本地提权</text></g></g><g id="minder_node35"><g id="node_expander34" style="cursor: pointer;" display="none"><path id="kity_path_300" fill="white" stroke="gray" d="M618.5000141188502,470.49998884648085A6,6,0,1,1,606.5000141188502,470.49998884648085A6,6,0,1,1,618.5000141188502,470.49998884648085"></path><path id="kity_path_301" fill="none" stroke="gray"></path></g><path id="node_outline35" fill="none" stroke="none" d="M623.500014282763,461.49998884648085h35a5,5,0,0,1,5,5v8a5,5,0,0,1,-5,5h-35a5,5,0,0,1,-5,-5v-8a5,5,0,0,1,5,-5z" stroke-width="3"></path><g id="node_text35" fill="black"><text id="kity_text_297" text-rendering="inherit" font-size="12" dy=".8em" y="462.69998881965876" x="623.500014282763">DDOS</text></g></g><g id="minder_node36"><g id="node_expander35" style="cursor: pointer;" display="none"><path id="kity_path_308" fill="white" stroke="gray" d="M618.5000141188502,496.49998923391104A6,6,0,1,1,606.5000141188502,496.49998923391104A6,6,0,1,1,618.5000141188502,496.49998923391104"></path><path id="kity_path_309" fill="none" stroke="gray"></path></g><path id="node_outline36" fill="none" stroke="none" d="M623.500014282763,487.49998923391104h20a5,5,0,0,1,5,5v8a5,5,0,0,1,-5,5h-20a5,5,0,0,1,-5,-5v-8a5,5,0,0,1,5,-5z" stroke-width="3"></path><g id="node_text36" fill="black"><text id="kity_text_305" text-rendering="inherit" font-size="12" dy=".8em" y="488.69998920708895" x="623.500014282763">SSL</text></g></g><g id="minder_node37"><g id="node_expander36" style="cursor: pointer;" display="none"><path id="kity_path_316" fill="white" stroke="gray" d="M618.5000141188502,522.4999896213412A6,6,0,1,1,606.5000141188502,522.4999896213412A6,6,0,1,1,618.5000141188502,522.4999896213412"></path><path id="kity_path_317" fill="none" stroke="gray"></path></g><path id="node_outline37" fill="none" stroke="none" d="M623.500014282763,513.4999896213412h24a5,5,0,0,1,5,5v8a5,5,0,0,1,-5,5h-24a5,5,0,0,1,-5,-5v-8a5,5,0,0,1,5,-5z" stroke-width="3"></path><g id="node_text37" fill="black"><text id="kity_text_313" text-rendering="inherit" font-size="12" dy=".8em" y="514.6999895945191" x="623.500014282763">扫描</text></g></g><g id="minder_node39"><g id="node_expander38" style="cursor: pointer;" display="none"><path id="kity_path_332" fill="white" stroke="gray" d="M586.5000136420131,964.4999962076545A6,6,0,1,1,574.5000136420131,964.4999962076545A6,6,0,1,1,586.5000136420131,964.4999962076545"></path><path id="kity_path_333" fill="none" stroke="gray"></path></g><path id="node_outline39" fill="none" stroke="none" d="M591.5000138059258,955.4999962076545h42a5,5,0,0,1,5,5v8a5,5,0,0,1,-5,5h-42a5,5,0,0,1,-5,-5v-8a5,5,0,0,1,5,-5z" stroke-width="3"></path><g id="node_text39" fill="black"><text id="kity_text_329" text-rendering="inherit" font-size="12" dy=".8em" y="956.6999961808324" x="591.5000138059258">Tomcat</text></g></g><g id="minder_node40"><g id="node_expander39" style="cursor: pointer;" display="none"><path id="kity_path_340" fill="white" stroke="gray" d="M586.5000136420131,990.4999965950847A6,6,0,1,1,574.5000136420131,990.4999965950847A6,6,0,1,1,586.5000136420131,990.4999965950847"></path><path id="kity_path_341" fill="none" stroke="gray"></path></g><path id="node_outline40" fill="none" stroke="none" d="M591.5000138059258,981.4999965950847h31a5,5,0,0,1,5,5v8a5,5,0,0,1,-5,5h-31a5,5,0,0,1,-5,-5v-8a5,5,0,0,1,5,-5z" stroke-width="3"></path><g id="node_text40" fill="black"><text id="kity_text_337" text-rendering="inherit" font-size="12" dy=".8em" y="982.6999965682626" x="591.5000138059258">JBoss</text></g></g><g id="minder_node41"><g id="node_expander40" style="cursor: pointer;" display="none"><path id="kity_path_348" fill="white" stroke="gray" d="M586.5000136420131,1016.4999969825149A6,6,0,1,1,574.5000136420131,1016.4999969825149A6,6,0,1,1,586.5000136420131,1016.4999969825149"></path><path id="kity_path_349" fill="none" stroke="gray"></path></g><path id="node_outline41" fill="none" stroke="none" d="M591.5000138059258,1007.4999969825149h43a5,5,0,0,1,5,5v8a5,5,0,0,1,-5,5h-43a5,5,0,0,1,-5,-5v-8a5,5,0,0,1,5,-5z" stroke-width="3"></path><g id="node_text41" fill="black"><text id="kity_text_345" text-rendering="inherit" font-size="12" dy=".8em" y="1008.6999969556928" x="591.5000138059258">Apache</text></g></g><g id="minder_node42"><g id="node_expander41" style="cursor: pointer;" display="none"><path id="kity_path_356" fill="white" stroke="gray" d="M586.5000136420131,1042.499997369945A6,6,0,1,1,574.5000136420131,1042.499997369945A6,6,0,1,1,586.5000136420131,1042.499997369945"></path><path id="kity_path_357" fill="none" stroke="gray"></path></g><path id="node_outline42" fill="none" stroke="none" d="M591.5000138059258,1033.499997369945h27a5,5,0,0,1,5,5v8a5,5,0,0,1,-5,5h-27a5,5,0,0,1,-5,-5v-8a5,5,0,0,1,5,-5z" stroke-width="3"></path><g id="node_text42" fill="black"><text id="kity_text_353" text-rendering="inherit" font-size="12" dy=".8em" y="1034.699997343123" x="591.5000138059258">Jetty</text></g></g><g id="minder_node43"><g id="node_expander42" style="cursor: pointer;" display="none"><path id="kity_path_364" fill="white" stroke="gray" d="M586.5000136420131,1068.4999977573752A6,6,0,1,1,574.5000136420131,1068.4999977573752A6,6,0,1,1,586.5000136420131,1068.4999977573752"></path><path id="kity_path_365" fill="none" stroke="gray"></path></g><path id="node_outline43" fill="none" stroke="none" d="M591.5000138059258,1059.4999977573752h14a5,5,0,0,1,5,5v8a5,5,0,0,1,-5,5h-14a5,5,0,0,1,-5,-5v-8a5,5,0,0,1,5,-5z" stroke-width="3"></path><g id="node_text43" fill="black"><text id="kity_text_361" text-rendering="inherit" font-size="12" dy=".8em" y="1060.6999977305532" x="591.5000138059258">IIS</text></g></g><g id="minder_node44"><g id="node_expander43" style="cursor: pointer;" display="none"><path id="kity_path_372" fill="white" stroke="gray" d="M586.5000136420131,1094.4999981448054A6,6,0,1,1,574.5000136420131,1094.4999981448054A6,6,0,1,1,586.5000136420131,1094.4999981448054"></path><path id="kity_path_373" fill="none" stroke="gray"></path></g><path id="node_outline44" fill="none" stroke="none" d="M591.5000138059258,1085.4999981448054h30a5,5,0,0,1,5,5v8a5,5,0,0,1,-5,5h-30a5,5,0,0,1,-5,-5v-8a5,5,0,0,1,5,-5z" stroke-width="3"></path><g id="node_text44" fill="black"><text id="kity_text_369" text-rendering="inherit" font-size="12" dy=".8em" y="1086.6999981179833" x="591.5000138059258">Resin</text></g></g><g id="minder_node45"><g id="node_expander44" style="cursor: pointer;" display="none"><path id="kity_path_380" fill="white" stroke="gray" d="M586.5000136420131,1120.4999985322356A6,6,0,1,1,574.5000136420131,1120.4999985322356A6,6,0,1,1,586.5000136420131,1120.4999985322356"></path><path id="kity_path_381" fill="none" stroke="gray"></path></g><path id="node_outline45" fill="none" stroke="none" d="M591.5000138059258,1111.4999985322356h54a5,5,0,0,1,5,5v8a5,5,0,0,1,-5,5h-54a5,5,0,0,1,-5,-5v-8a5,5,0,0,1,5,-5z" stroke-width="3"></path><g id="node_text45" fill="black"><text id="kity_text_377" text-rendering="inherit" font-size="12" dy=".8em" y="1112.6999985054135" x="591.5000138059258">Weblogic</text></g></g><g id="minder_node46"><g id="node_expander45" style="cursor: pointer;" display="none"><path id="kity_path_388" fill="white" stroke="gray" d="M586.5000136420131,1146.4999989196658A6,6,0,1,1,574.5000136420131,1146.4999989196658A6,6,0,1,1,586.5000136420131,1146.4999989196658"></path><path id="kity_path_389" fill="none" stroke="gray"></path></g><path id="node_outline46" fill="none" stroke="none" d="M591.5000138059258,1137.4999989196658h34a5,5,0,0,1,5,5v8a5,5,0,0,1,-5,5h-34a5,5,0,0,1,-5,-5v-8a5,5,0,0,1,5,-5z" stroke-width="3"></path><g id="node_text46" fill="black"><text id="kity_text_385" text-rendering="inherit" font-size="12" dy=".8em" y="1138.6999988928437" x="591.5000138059258">Nginx</text></g></g><g id="minder_node47"><g id="node_expander46" style="cursor: pointer;" display="none"><path id="kity_path_396" fill="white" stroke="gray" d="M555.5000131800771,704.4999923333526A6,6,0,1,1,543.5000131800771,704.4999923333526A6,6,0,1,1,555.5000131800771,704.4999923333526"></path><path id="kity_path_397" fill="none" stroke="gray"></path></g><path id="node_outline47" fill="none" stroke="none" d="M560.5000133439898,695.4999923333526h72a5,5,0,0,1,5,5v8a5,5,0,0,1,-5,5h-72a5,5,0,0,1,-5,-5v-8a5,5,0,0,1,5,-5z" stroke-width="3"></path><g id="node_text47" fill="black"><text id="kity_text_393" text-rendering="inherit" font-size="12" dy=".8em" y="696.6999923065305" x="560.5000133439898">备份文件泄露</text></g></g><g id="minder_node48"><g id="node_expander47" style="cursor: pointer;" display="none"><path id="kity_path_404" fill="white" stroke="gray" d="M555.5000131800771,730.4999927207828A6,6,0,1,1,543.5000131800771,730.4999927207828A6,6,0,1,1,555.5000131800771,730.4999927207828"></path><path id="kity_path_405" fill="none" stroke="gray"></path></g><path id="node_outline48" fill="none" stroke="none" d="M560.5000133439898,721.4999927207828h72a5,5,0,0,1,5,5v8a5,5,0,0,1,-5,5h-72a5,5,0,0,1,-5,-5v-8a5,5,0,0,1,5,-5z" stroke-width="3"></path><g id="node_text48" fill="black"><text id="kity_text_401" text-rendering="inherit" font-size="12" dy=".8em" y="722.6999926939607" x="560.5000133439898">压缩文件泄露</text></g></g><g id="minder_node49"><g id="node_expander48" style="cursor: pointer;" display="none"><path id="kity_path_412" fill="white" stroke="gray" d="M555.5000131800771,782.4999934956431A6,6,0,1,1,543.5000131800771,782.4999934956431A6,6,0,1,1,555.5000131800771,782.4999934956431"></path><path id="kity_path_413" fill="none" stroke="gray"></path></g><path id="node_outline49" fill="none" stroke="none" d="M560.5000133439898,773.4999934956431h60a5,5,0,0,1,5,5v8a5,5,0,0,1,-5,5h-60a5,5,0,0,1,-5,-5v-8a5,5,0,0,1,5,-5z" stroke-width="3"></path><g id="node_text49" fill="black"><text id="kity_text_409" text-rendering="inherit" font-size="12" dy=".8em" y="774.699993468821" x="560.5000133439898">编辑器安全</text></g></g><g id="minder_node50"><g id="node_expander49" style="cursor: pointer;" display="none"><path id="kity_path_420" fill="white" stroke="gray" d="M555.5000131800771,808.4999938830733A6,6,0,1,1,543.5000131800771,808.4999938830733A6,6,0,1,1,555.5000131800771,808.4999938830733"></path><path id="kity_path_421" fill="none" stroke="gray"></path></g><path id="node_outline50" fill="none" stroke="none" d="M560.5000133439898,799.4999938830733h17a5,5,0,0,1,5,5v8a5,5,0,0,1,-5,5h-17a5,5,0,0,1,-5,-5v-8a5,5,0,0,1,5,-5z" stroke-width="3"></path><g id="node_text50" fill="black"><text id="kity_text_417" text-rendering="inherit" font-size="12" dy=".8em" y="800.6999938562512" x="560.5000133439898">Git</text></g></g><g id="minder_node51"><g id="node_expander50" style="cursor: pointer;" display="none"><path id="kity_path_428" fill="white" stroke="gray" d="M555.5000131800771,834.4999942705035A6,6,0,1,1,543.5000131800771,834.4999942705035A6,6,0,1,1,555.5000131800771,834.4999942705035"></path><path id="kity_path_429" fill="none" stroke="gray"></path></g><path id="node_outline51" fill="none" stroke="none" d="M560.5000133439898,825.4999942705035h25a5,5,0,0,1,5,5v8a5,5,0,0,1,-5,5h-25a5,5,0,0,1,-5,-5v-8a5,5,0,0,1,5,-5z" stroke-width="3"></path><g id="node_text51" fill="black"><text id="kity_text_425" text-rendering="inherit" font-size="12" dy=".8em" y="826.6999942436814" x="560.5000133439898">SVN</text></g></g><g id="minder_node52"><g id="node_expander51" style="cursor: pointer;" display="none"><path id="kity_path_436" fill="white" stroke="gray" d="M555.5000131800771,860.4999946579337A6,6,0,1,1,543.5000131800771,860.4999946579337A6,6,0,1,1,555.5000131800771,860.4999946579337"></path><path id="kity_path_437" fill="none" stroke="gray"></path></g><path id="node_outline52" fill="none" stroke="none" d="M560.5000133439898,851.4999946579337h37a5,5,0,0,1,5,5v8a5,5,0,0,1,-5,5h-37a5,5,0,0,1,-5,-5v-8a5,5,0,0,1,5,-5z" stroke-width="3"></path><g id="node_text52" fill="black"><text id="kity_text_433" text-rendering="inherit" font-size="12" dy=".8em" y="852.6999946311116" x="560.5000133439898">zabbix</text></g></g><g id="minder_node53"><g id="node_expander52" style="cursor: pointer;" display="none"><path id="kity_path_444" fill="white" stroke="gray" d="M555.5000131800771,756.499993108213A6,6,0,1,1,543.5000131800771,756.499993108213A6,6,0,1,1,555.5000131800771,756.499993108213"></path><path id="kity_path_445" fill="none" stroke="gray"></path></g><path id="node_outline53" fill="none" stroke="none" d="M560.5000133439898,747.499993108213h72a5,5,0,0,1,5,5v8a5,5,0,0,1,-5,5h-72a5,5,0,0,1,-5,-5v-8a5,5,0,0,1,5,-5z" stroke-width="3"></path><g id="node_text53" fill="black"><text id="kity_text_441" text-rendering="inherit" font-size="12" dy=".8em" y="748.6999930813909" x="560.5000133439898">敏感文件泄露</text></g></g><g id="minder_node54"><g id="node_expander53" style="cursor: pointer;" display="none"><path id="kity_path_452" fill="white" stroke="gray" d="M555.5000131800771,886.4999950453639A6,6,0,1,1,543.5000131800771,886.4999950453639A6,6,0,1,1,555.5000131800771,886.4999950453639"></path><path id="kity_path_453" fill="none" stroke="gray"></path></g><path id="node_outline54" fill="none" stroke="none" d="M560.5000133439898,877.4999950453639h34a5,5,0,0,1,5,5v8a5,5,0,0,1,-5,5h-34a5,5,0,0,1,-5,-5v-8a5,5,0,0,1,5,-5z" stroke-width="3"></path><g id="node_text54" fill="black"><text id="kity_text_449" text-rendering="inherit" font-size="12" dy=".8em" y="878.6999950185418" x="560.5000133439898">strut2</text></g></g><g id="minder_node55"><g id="node_expander54" style="cursor: pointer;" display="none"><path id="kity_path_460" fill="white" stroke="gray" d="M555.5000131800771,912.4999954327941A6,6,0,1,1,543.5000131800771,912.4999954327941A6,6,0,1,1,555.5000131800771,912.4999954327941"></path><path id="kity_path_461" fill="none" stroke="gray"></path></g><path id="node_outline55" fill="none" stroke="none" d="M560.5000133439898,903.4999954327941h20a5,5,0,0,1,5,5v8a5,5,0,0,1,-5,5h-20a5,5,0,0,1,-5,-5v-8a5,5,0,0,1,5,-5z" stroke-width="3"></path><g id="node_text55" fill="black"><text id="kity_text_457" text-rendering="inherit" font-size="12" dy=".8em" y="904.699995405972" x="560.5000133439898">cati</text></g></g><g id="minder_node56"><g id="node_expander55" style="cursor: pointer;" display="none"><path id="kity_path_468" fill="white" stroke="gray" d="M555.5000131800771,938.4999958202243A6,6,0,1,1,543.5000131800771,938.4999958202243A6,6,0,1,1,555.5000131800771,938.4999958202243"></path><path id="kity_path_469" fill="none" stroke="gray"></path></g><path id="node_outline56" fill="none" stroke="none" d="M560.5000133439898,929.4999958202243h42a5,5,0,0,1,5,5v8a5,5,0,0,1,-5,5h-42a5,5,0,0,1,-5,-5v-8a5,5,0,0,1,5,-5z" stroke-width="3"></path><g id="node_text56" fill="black"><text id="kity_text_465" text-rendering="inherit" font-size="12" dy=".8em" y="930.6999957934022" x="560.5000133439898">jenkins</text></g></g><g id="minder_node57"><g id="node_expander56" style="cursor: pointer;" display="none"><path id="kity_path_476" fill="white" stroke="gray" d="M567.500013358891,548.4999900087714A6,6,0,1,1,555.500013358891,548.4999900087714A6,6,0,1,1,567.500013358891,548.4999900087714"></path><path id="kity_path_477" fill="none" stroke="gray"></path></g><path id="node_outline57" fill="none" stroke="none" d="M572.5000135228038,539.4999900087714h48a5,5,0,0,1,5,5v8a5,5,0,0,1,-5,5h-48a5,5,0,0,1,-5,-5v-8a5,5,0,0,1,5,-5z" stroke-width="3"></path><g id="node_text57" fill="black"><text id="kity_text_473" text-rendering="inherit" font-size="12" dy=".8em" y="540.6999899819493" x="572.5000135228038">截图泄露</text></g></g><g id="minder_node58"><g id="node_expander57" style="cursor: pointer;" display="none"><path id="kity_path_484" fill="white" stroke="gray" d="M567.500013358891,574.4999903962016A6,6,0,1,1,555.500013358891,574.4999903962016A6,6,0,1,1,567.500013358891,574.4999903962016"></path><path id="kity_path_485" fill="none" stroke="gray"></path></g><path id="node_outline58" fill="none" stroke="none" d="M572.5000135228038,565.4999903962016h48a5,5,0,0,1,5,5v8a5,5,0,0,1,-5,5h-48a5,5,0,0,1,-5,-5v-8a5,5,0,0,1,5,-5z" stroke-width="3"></path><g id="node_text58" fill="black"><text id="kity_text_481" text-rendering="inherit" font-size="12" dy=".8em" y="566.6999903693795" x="572.5000135228038">操作手册</text></g></g><g id="minder_node59"><g id="node_expander58" style="cursor: pointer;" display="none"><path id="kity_path_492" fill="white" stroke="gray" d="M567.500013358891,600.4999907836318A6,6,0,1,1,555.500013358891,600.4999907836318A6,6,0,1,1,567.500013358891,600.4999907836318"></path><path id="kity_path_493" fill="none" stroke="gray"></path></g><path id="node_outline59" fill="none" stroke="none" d="M572.5000135228038,591.4999907836318h22a5,5,0,0,1,5,5v8a5,5,0,0,1,-5,5h-22a5,5,0,0,1,-5,-5v-8a5,5,0,0,1,5,-5z" stroke-width="3"></path><g id="node_text59" fill="black"><text id="kity_text_489" text-rendering="inherit" font-size="12" dy=".8em" y="592.6999907568097" x="572.5000135228038">PPT</text></g></g><g id="minder_node60"><g id="node_expander59" style="cursor: pointer;" display="none"><path id="kity_path_500" fill="white" stroke="gray" d="M567.500013358891,626.499991171062A6,6,0,1,1,555.500013358891,626.499991171062A6,6,0,1,1,567.500013358891,626.499991171062"></path><path id="kity_path_501" fill="none" stroke="gray"></path></g><path id="node_outline60" fill="none" stroke="none" d="M572.5000135228038,617.499991171062h96a5,5,0,0,1,5,5v8a5,5,0,0,1,-5,5h-96a5,5,0,0,1,-5,-5v-8a5,5,0,0,1,5,-5z" stroke-width="3"></path><g id="node_text60" fill="black"><text id="kity_text_497" text-rendering="inherit" font-size="12" dy=".8em" y="618.6999911442399" x="572.5000135228038">内部账号外部业务</text></g></g><g id="minder_node61"><g id="node_expander60" style="cursor: pointer;" display="none"><path id="kity_path_508" fill="white" stroke="gray" d="M567.500013358891,652.4999915584922A6,6,0,1,1,555.500013358891,652.4999915584922A6,6,0,1,1,567.500013358891,652.4999915584922"></path><path id="kity_path_509" fill="none" stroke="gray"></path></g><path id="node_outline61" fill="none" stroke="none" d="M572.5000135228038,643.4999915584922h48a5,5,0,0,1,5,5v8a5,5,0,0,1,-5,5h-48a5,5,0,0,1,-5,-5v-8a5,5,0,0,1,5,-5z" stroke-width="3"></path><g id="node_text61" fill="black"><text id="kity_text_505" text-rendering="inherit" font-size="12" dy=".8em" y="644.6999915316701" x="572.5000135228038">代码泄露</text></g></g><g id="minder_node62"><g id="node_expander61" style="cursor: pointer;" display="none"><path id="kity_path_516" fill="white" stroke="gray" d="M567.500013358891,678.4999919459224A6,6,0,1,1,555.500013358891,678.4999919459224A6,6,0,1,1,567.500013358891,678.4999919459224"></path><path id="kity_path_517" fill="none" stroke="gray"></path></g><path id="node_outline62" fill="none" stroke="none" d="M572.5000135228038,669.4999919459224h26a5,5,0,0,1,5,5v8a5,5,0,0,1,-5,5h-26a5,5,0,0,1,-5,-5v-8a5,5,0,0,1,5,-5z" stroke-width="3"></path><g id="node_text62" fill="black"><text id="kity_text_513" text-rendering="inherit" font-size="12" dy=".8em" y="670.6999919191003" x="572.5000135228038">Blog</text></g></g><g id="minder_node63"><g id="node_expander62" style="cursor: pointer;"><path id="kity_path_524" fill="white" stroke="gray" d="M493.5000122562051,1263.5000006631017A6,6,0,1,1,481.5000122562051,1263.5000006631017A6,6,0,1,1,493.5000122562051,1263.5000006631017"></path><path id="kity_path_525" fill="none" stroke="gray" d="M483.0000122562051,1263.5000006631017L492.0000122562051,1263.5000006631017"></path></g><path id="node_outline63" fill="none" stroke="none" d="M498.50001242011786,1254.5000006631017h48a5,5,0,0,1,5,5v8a5,5,0,0,1,-5,5h-48a5,5,0,0,1,-5,-5v-8a5,5,0,0,1,5,-5z" stroke-width="3"></path><g id="node_text63" fill="black"><text id="kity_text_521" text-rendering="inherit" font-size="12" dy=".8em" y="1255.7000006362796" x="498.50001242011786">账号体系</text></g></g><g id="minder_node64"><g id="node_expander63" style="cursor: pointer;"><path id="kity_path_532" fill="white" stroke="gray" d="M493.5000122562051,1419.5000029876828A6,6,0,1,1,481.5000122562051,1419.5000029876828A6,6,0,1,1,493.5000122562051,1419.5000029876828"></path><path id="kity_path_533" fill="none" stroke="gray" d="M483.0000122562051,1419.5000029876828L492.0000122562051,1419.5000029876828"></path></g><path id="node_outline64" fill="none" stroke="none" d="M498.50001242011786,1410.5000029876828h48a5,5,0,0,1,5,5v8a5,5,0,0,1,-5,5h-48a5,5,0,0,1,-5,-5v-8a5,5,0,0,1,5,-5z" stroke-width="3"></path><g id="node_text64" fill="black"><text id="kity_text_529" text-rendering="inherit" font-size="12" dy=".8em" y="1411.7000029608607" x="498.50001242011786">风控体系</text></g></g><g id="minder_node65"><g id="node_expander64" style="cursor: pointer;"><path id="kity_path_540" fill="white" stroke="gray" d="M493.5000122562051,1588.500005505979A6,6,0,1,1,481.5000122562051,1588.500005505979A6,6,0,1,1,493.5000122562051,1588.500005505979"></path><path id="kity_path_541" fill="none" stroke="gray" d="M483.0000122562051,1588.500005505979L492.0000122562051,1588.500005505979"></path></g><path id="node_outline65" fill="none" stroke="none" d="M498.50001242011786,1579.500005505979h48a5,5,0,0,1,5,5v8a5,5,0,0,1,-5,5h-48a5,5,0,0,1,-5,-5v-8a5,5,0,0,1,5,-5z" stroke-width="3"></path><g id="node_text65" fill="black"><text id="kity_text_537" text-rendering="inherit" font-size="12" dy=".8em" y="1580.700005479157" x="498.50001242011786">营销活动</text></g></g><g id="minder_node66"><g id="node_expander65" style="cursor: pointer;"><path id="kity_path_548" fill="white" stroke="gray" d="M493.5000122562051,1757.5000080242753A6,6,0,1,1,481.5000122562051,1757.5000080242753A6,6,0,1,1,493.5000122562051,1757.5000080242753"></path><path id="kity_path_549" fill="none" stroke="gray" d="M483.0000122562051,1757.5000080242753L492.0000122562051,1757.5000080242753"></path></g><path id="node_outline66" fill="none" stroke="none" d="M498.50001242011786,1748.5000080242753h48a5,5,0,0,1,5,5v8a5,5,0,0,1,-5,5h-48a5,5,0,0,1,-5,-5v-8a5,5,0,0,1,5,-5z" stroke-width="3"></path><g id="node_text66" fill="black"><text id="kity_text_545" text-rendering="inherit" font-size="12" dy=".8em" y="1749.7000079974532" x="498.50001242011786">交易体系</text></g></g><g id="minder_node67"><g id="node_expander66" style="cursor: pointer;" display="none"><path id="kity_path_556" fill="white" stroke="gray" d="M567.500013358891,1172.499999307096A6,6,0,1,1,555.500013358891,1172.499999307096A6,6,0,1,1,567.500013358891,1172.499999307096"></path><path id="kity_path_557" fill="none" stroke="gray"></path></g><path id="node_outline67" fill="none" stroke="none" d="M572.5000135228038,1163.499999307096h48a5,5,0,0,1,5,5v8a5,5,0,0,1,-5,5h-48a5,5,0,0,1,-5,-5v-8a5,5,0,0,1,5,-5z" stroke-width="3"></path><g id="node_text67" fill="black"><text id="kity_text_553" text-rendering="inherit" font-size="12" dy=".8em" y="1164.699999280274" x="572.5000135228038">密码重置</text></g></g><g id="minder_node68"><g id="node_expander67" style="cursor: pointer;" display="none"><path id="kity_path_564" fill="white" stroke="gray" d="M567.500013358891,1198.4999996945262A6,6,0,1,1,555.500013358891,1198.4999996945262A6,6,0,1,1,567.500013358891,1198.4999996945262"></path><path id="kity_path_565" fill="none" stroke="gray"></path></g><path id="node_outline68" fill="none" stroke="none" d="M572.5000135228038,1189.4999996945262h48a5,5,0,0,1,5,5v8a5,5,0,0,1,-5,5h-48a5,5,0,0,1,-5,-5v-8a5,5,0,0,1,5,-5z" stroke-width="3"></path><g id="node_text68" fill="black"><text id="kity_text_561" text-rendering="inherit" font-size="12" dy=".8em" y="1190.699999667704" x="572.5000135228038">批量注册</text></g></g><g id="minder_node69"><g id="node_expander68" style="cursor: pointer;" display="none"><path id="kity_path_572" fill="white" stroke="gray" d="M567.500013358891,1224.5000000819564A6,6,0,1,1,555.500013358891,1224.5000000819564A6,6,0,1,1,567.500013358891,1224.5000000819564"></path><path id="kity_path_573" fill="none" stroke="gray"></path></g><path id="node_outline69" fill="none" stroke="none" d="M572.5000135228038,1215.5000000819564h48a5,5,0,0,1,5,5v8a5,5,0,0,1,-5,5h-48a5,5,0,0,1,-5,-5v-8a5,5,0,0,1,5,-5z" stroke-width="3"></path><g id="node_text69" fill="black"><text id="kity_text_569" text-rendering="inherit" font-size="12" dy=".8em" y="1216.7000000551343" x="572.5000135228038">登录防控</text></g></g><g id="minder_node70"><g id="node_expander69" style="cursor: pointer;" display="none"><path id="kity_path_580" fill="white" stroke="gray" d="M567.500013358891,1250.5000004693866A6,6,0,1,1,555.500013358891,1250.5000004693866A6,6,0,1,1,567.500013358891,1250.5000004693866"></path><path id="kity_path_581" fill="none" stroke="gray"></path></g><path id="node_outline70" fill="none" stroke="none" d="M572.5000135228038,1241.5000004693866h48a5,5,0,0,1,5,5v8a5,5,0,0,1,-5,5h-48a5,5,0,0,1,-5,-5v-8a5,5,0,0,1,5,-5z" stroke-width="3"></path><g id="node_text70" fill="black"><text id="kity_text_577" text-rendering="inherit" font-size="12" dy=".8em" y="1242.7000004425645" x="572.5000135228038">任意登录</text></g></g><g id="minder_node71"><g id="node_expander70" style="cursor: pointer;" display="none"><path id="kity_path_588" fill="white" stroke="gray" d="M567.500013358891,1276.5000008568168A6,6,0,1,1,555.500013358891,1276.5000008568168A6,6,0,1,1,567.500013358891,1276.5000008568168"></path><path id="kity_path_589" fill="none" stroke="gray"></path></g><path id="node_outline71" fill="none" stroke="none" d="M572.5000135228038,1267.5000008568168h48a5,5,0,0,1,5,5v8a5,5,0,0,1,-5,5h-48a5,5,0,0,1,-5,-5v-8a5,5,0,0,1,5,-5z" stroke-width="3"></path><g id="node_text71" fill="black"><text id="kity_text_585" text-rendering="inherit" font-size="12" dy=".8em" y="1268.7000008299947" x="572.5000135228038">任意注册</text></g></g><g id="minder_node72"><g id="node_expander71" style="cursor: pointer;" display="none"><path id="kity_path_596" fill="white" stroke="gray" d="M567.500013358891,1302.500001244247A6,6,0,1,1,555.500013358891,1302.500001244247A6,6,0,1,1,567.500013358891,1302.500001244247"></path><path id="kity_path_597" fill="none" stroke="gray"></path></g><path id="node_outline72" fill="none" stroke="none" d="M572.5000135228038,1293.500001244247h48a5,5,0,0,1,5,5v8a5,5,0,0,1,-5,5h-48a5,5,0,0,1,-5,-5v-8a5,5,0,0,1,5,-5z" stroke-width="3"></path><g id="node_text72" fill="black"><text id="kity_text_593" text-rendering="inherit" font-size="12" dy=".8em" y="1294.7000012174249" x="572.5000135228038">身份盗用</text></g></g><g id="minder_node73"><g id="node_expander72" style="cursor: pointer;" display="none"><path id="kity_path_604" fill="white" stroke="gray" d="M567.500013358891,1328.5000016316772A6,6,0,1,1,555.500013358891,1328.5000016316772A6,6,0,1,1,567.500013358891,1328.5000016316772"></path><path id="kity_path_605" fill="none" stroke="gray"></path></g><path id="node_outline73" fill="none" stroke="none" d="M572.5000135228038,1319.5000016316772h48a5,5,0,0,1,5,5v8a5,5,0,0,1,-5,5h-48a5,5,0,0,1,-5,-5v-8a5,5,0,0,1,5,-5z" stroke-width="3"></path><g id="node_text73" fill="black"><text id="kity_text_601" text-rendering="inherit" font-size="12" dy=".8em" y="1320.700001604855" x="572.5000135228038">身份鉴定</text></g></g><g id="minder_node74"><g id="node_expander73" style="cursor: pointer;" display="none"><path id="kity_path_612" fill="white" stroke="gray" d="M567.500013358891,1354.5000020191073A6,6,0,1,1,555.500013358891,1354.5000020191073A6,6,0,1,1,567.500013358891,1354.5000020191073"></path><path id="kity_path_613" fill="none" stroke="gray"></path></g><path id="node_outline74" fill="none" stroke="none" d="M572.5000135228038,1345.5000020191073h24a5,5,0,0,1,5,5v8a5,5,0,0,1,-5,5h-24a5,5,0,0,1,-5,-5v-8a5,5,0,0,1,5,-5z" stroke-width="3"></path><g id="node_text74" fill="black"><text id="kity_text_609" text-rendering="inherit" font-size="12" dy=".8em" y="1346.7000019922853" x="572.5000135228038">撞库</text></g></g><g id="minder_node75"><g id="node_expander74" style="cursor: pointer;" display="none"><path id="kity_path_620" fill="white" stroke="gray" d="M567.500013358891,1380.5000024065375A6,6,0,1,1,555.500013358891,1380.5000024065375A6,6,0,1,1,567.500013358891,1380.5000024065375"></path><path id="kity_path_621" fill="none" stroke="gray"></path></g><path id="node_outline75" fill="none" stroke="none" d="M572.5000135228038,1371.5000024065375h48a5,5,0,0,1,5,5v8a5,5,0,0,1,-5,5h-48a5,5,0,0,1,-5,-5v-8a5,5,0,0,1,5,-5z" stroke-width="3"></path><g id="node_text75" fill="black"><text id="kity_text_617" text-rendering="inherit" font-size="12" dy=".8em" y="1372.7000023797154" x="572.5000135228038">风控遗漏</text></g></g><g id="minder_node76"><g id="node_expander75" style="cursor: pointer;" display="none"><path id="kity_path_628" fill="white" stroke="gray" d="M567.500013358891,1406.5000027939677A6,6,0,1,1,555.500013358891,1406.5000027939677A6,6,0,1,1,567.500013358891,1406.5000027939677"></path><path id="kity_path_629" fill="none" stroke="gray"></path></g><path id="node_outline76" fill="none" stroke="none" d="M572.5000135228038,1397.5000027939677h48a5,5,0,0,1,5,5v8a5,5,0,0,1,-5,5h-48a5,5,0,0,1,-5,-5v-8a5,5,0,0,1,5,-5z" stroke-width="3"></path><g id="node_text76" fill="black"><text id="kity_text_625" text-rendering="inherit" font-size="12" dy=".8em" y="1398.7000027671456" x="572.5000135228038">机器识别</text></g></g><g id="minder_node77"><g id="node_expander76" style="cursor: pointer;" display="none"><path id="kity_path_636" fill="white" stroke="gray" d="M567.500013358891,1432.500003181398A6,6,0,1,1,555.500013358891,1432.500003181398A6,6,0,1,1,567.500013358891,1432.500003181398"></path><path id="kity_path_637" fill="none" stroke="gray"></path></g><path id="node_outline77" fill="none" stroke="none" d="M572.5000135228038,1423.500003181398h48a5,5,0,0,1,5,5v8a5,5,0,0,1,-5,5h-48a5,5,0,0,1,-5,-5v-8a5,5,0,0,1,5,-5z" stroke-width="3"></path><g id="node_text77" fill="black"><text id="kity_text_633" text-rendering="inherit" font-size="12" dy=".8em" y="1424.7000031545758" x="572.5000135228038">风控缺陷</text></g></g><g id="minder_node78"><g id="node_expander77" style="cursor: pointer;" display="none"><path id="kity_path_644" fill="white" stroke="gray" d="M567.500013358891,1458.500003568828A6,6,0,1,1,555.500013358891,1458.500003568828A6,6,0,1,1,567.500013358891,1458.500003568828"></path><path id="kity_path_645" fill="none" stroke="gray"></path></g><path id="node_outline78" fill="none" stroke="none" d="M572.5000135228038,1449.500003568828h48a5,5,0,0,1,5,5v8a5,5,0,0,1,-5,5h-48a5,5,0,0,1,-5,-5v-8a5,5,0,0,1,5,-5z" stroke-width="3"></path><g id="node_text78" fill="black"><text id="kity_text_641" text-rendering="inherit" font-size="12" dy=".8em" y="1450.700003542006" x="572.5000135228038">判定要素</text></g></g><g id="minder_node79"><g id="node_expander78" style="cursor: pointer;" display="none"><path id="kity_path_652" fill="white" stroke="gray" d="M567.500013358891,1484.5000039562583A6,6,0,1,1,555.500013358891,1484.5000039562583A6,6,0,1,1,567.500013358891,1484.5000039562583"></path><path id="kity_path_653" fill="none" stroke="gray"></path></g><path id="node_outline79" fill="none" stroke="none" d="M572.5000135228038,1475.5000039562583h36a5,5,0,0,1,5,5v8a5,5,0,0,1,-5,5h-36a5,5,0,0,1,-5,-5v-8a5,5,0,0,1,5,-5z" stroke-width="3"></path><g id="node_text79" fill="black"><text id="kity_text_649" text-rendering="inherit" font-size="12" dy=".8em" y="1476.7000039294362" x="572.5000135228038">机器人</text></g></g><g id="minder_node80"><g id="node_expander79" style="cursor: pointer;" display="none"><path id="kity_path_660" fill="white" stroke="gray" d="M567.500013358891,1510.5000043436885A6,6,0,1,1,555.500013358891,1510.5000043436885A6,6,0,1,1,567.500013358891,1510.5000043436885"></path><path id="kity_path_661" fill="none" stroke="gray"></path></g><path id="node_outline80" fill="none" stroke="none" d="M572.5000135228038,1501.5000043436885h48a5,5,0,0,1,5,5v8a5,5,0,0,1,-5,5h-48a5,5,0,0,1,-5,-5v-8a5,5,0,0,1,5,-5z" stroke-width="3"></path><g id="node_text80" fill="black"><text id="kity_text_657" text-rendering="inherit" font-size="12" dy=".8em" y="1502.7000043168664" x="572.5000135228038">垃圾注册</text></g></g><g id="minder_node81"><g id="node_expander80" style="cursor: pointer;" display="none"><path id="kity_path_668" fill="white" stroke="gray" d="M567.500013358891,1536.5000047311187A6,6,0,1,1,555.500013358891,1536.5000047311187A6,6,0,1,1,567.500013358891,1536.5000047311187"></path><path id="kity_path_669" fill="none" stroke="gray"></path></g><path id="node_outline81" fill="none" stroke="none" d="M572.5000135228038,1527.5000047311187h48a5,5,0,0,1,5,5v8a5,5,0,0,1,-5,5h-48a5,5,0,0,1,-5,-5v-8a5,5,0,0,1,5,-5z" stroke-width="3"></path><g id="node_text81" fill="black"><text id="kity_text_665" text-rendering="inherit" font-size="12" dy=".8em" y="1528.7000047042966" x="572.5000135228038">信用炒作</text></g></g><g id="minder_node82"><g id="node_expander81" style="cursor: pointer;" display="none"><path id="kity_path_676" fill="white" stroke="gray" d="M567.500013358891,1562.5000051185489A6,6,0,1,1,555.500013358891,1562.5000051185489A6,6,0,1,1,567.500013358891,1562.5000051185489"></path><path id="kity_path_677" fill="none" stroke="gray"></path></g><path id="node_outline82" fill="none" stroke="none" d="M572.5000135228038,1553.5000051185489h24a5,5,0,0,1,5,5v8a5,5,0,0,1,-5,5h-24a5,5,0,0,1,-5,-5v-8a5,5,0,0,1,5,-5z" stroke-width="3"></path><g id="node_text82" fill="black"><text id="kity_text_673" text-rendering="inherit" font-size="12" dy=".8em" y="1554.7000050917268" x="572.5000135228038">刷单</text></g></g><g id="minder_node83"><g id="node_expander82" style="cursor: pointer;" display="none"><path id="kity_path_684" fill="white" stroke="gray" d="M567.500013358891,1588.500005505979A6,6,0,1,1,555.500013358891,1588.500005505979A6,6,0,1,1,567.500013358891,1588.500005505979"></path><path id="kity_path_685" fill="none" stroke="gray"></path></g><path id="node_outline83" fill="none" stroke="none" d="M572.5000135228038,1579.500005505979h48a5,5,0,0,1,5,5v8a5,5,0,0,1,-5,5h-48a5,5,0,0,1,-5,-5v-8a5,5,0,0,1,5,-5z" stroke-width="3"></path><g id="node_text83" fill="black"><text id="kity_text_681" text-rendering="inherit" font-size="12" dy=".8em" y="1580.700005479157" x="572.5000135228038">买家套现</text></g></g><g id="minder_node84"><g id="node_expander83" style="cursor: pointer;" display="none"><path id="kity_path_692" fill="white" stroke="gray" d="M567.500013358891,1614.5000058934093A6,6,0,1,1,555.500013358891,1614.5000058934093A6,6,0,1,1,567.500013358891,1614.5000058934093"></path><path id="kity_path_693" fill="none" stroke="gray"></path></g><path id="node_outline84" fill="none" stroke="none" d="M572.5000135228038,1605.5000058934093h24a5,5,0,0,1,5,5v8a5,5,0,0,1,-5,5h-24a5,5,0,0,1,-5,-5v-8a5,5,0,0,1,5,-5z" stroke-width="3"></path><g id="node_text84" fill="black"><text id="kity_text_689" text-rendering="inherit" font-size="12" dy=".8em" y="1606.7000058665872" x="572.5000135228038">扫号</text></g></g><g id="minder_node85"><g id="node_expander84" style="cursor: pointer;" display="none"><path id="kity_path_700" fill="white" stroke="gray" d="M567.500013358891,1640.5000062808394A6,6,0,1,1,555.500013358891,1640.5000062808394A6,6,0,1,1,567.500013358891,1640.5000062808394"></path><path id="kity_path_701" fill="none" stroke="gray"></path></g><path id="node_outline85" fill="none" stroke="none" d="M572.5000135228038,1631.5000062808394h24a5,5,0,0,1,5,5v8a5,5,0,0,1,-5,5h-24a5,5,0,0,1,-5,-5v-8a5,5,0,0,1,5,-5z" stroke-width="3"></path><g id="node_text85" fill="black"><text id="kity_text_697" text-rendering="inherit" font-size="12" dy=".8em" y="1632.7000062540174" x="572.5000135228038">刷券</text></g></g><g id="minder_node86"><g id="node_expander85" style="cursor: pointer;" display="none"><path id="kity_path_708" fill="white" stroke="gray" d="M567.500013358891,1666.5000066682696A6,6,0,1,1,555.500013358891,1666.5000066682696A6,6,0,1,1,567.500013358891,1666.5000066682696"></path><path id="kity_path_709" fill="none" stroke="gray"></path></g><path id="node_outline86" fill="none" stroke="none" d="M572.5000135228038,1657.5000066682696h36a5,5,0,0,1,5,5v8a5,5,0,0,1,-5,5h-36a5,5,0,0,1,-5,-5v-8a5,5,0,0,1,5,-5z" stroke-width="3"></path><g id="node_text86" fill="black"><text id="kity_text_705" text-rendering="inherit" font-size="12" dy=".8em" y="1658.7000066414475" x="572.5000135228038">薅羊毛</text></g></g><g id="minder_node87"><g id="node_expander86" style="cursor: pointer;" display="none"><path id="kity_path_716" fill="white" stroke="gray" d="M567.500013358891,1692.5000070556998A6,6,0,1,1,555.500013358891,1692.5000070556998A6,6,0,1,1,567.500013358891,1692.5000070556998"></path><path id="kity_path_717" fill="none" stroke="gray"></path></g><path id="node_outline87" fill="none" stroke="none" d="M572.5000135228038,1683.5000070556998h36a5,5,0,0,1,5,5v8a5,5,0,0,1,-5,5h-36a5,5,0,0,1,-5,-5v-8a5,5,0,0,1,5,-5z" stroke-width="3"></path><g id="node_text87" fill="black"><text id="kity_text_713" text-rendering="inherit" font-size="12" dy=".8em" y="1684.7000070288777" x="572.5000135228038">反爬虫</text></g></g><g id="minder_node88"><g id="node_expander87" style="cursor: pointer;" display="none"><path id="kity_path_724" fill="white" stroke="gray" d="M567.500013358891,1718.50000744313A6,6,0,1,1,555.500013358891,1718.50000744313A6,6,0,1,1,567.500013358891,1718.50000744313"></path><path id="kity_path_725" fill="none" stroke="gray"></path></g><path id="node_outline88" fill="none" stroke="none" d="M572.5000135228038,1709.50000744313h72a5,5,0,0,1,5,5v8a5,5,0,0,1,-5,5h-72a5,5,0,0,1,-5,-5v-8a5,5,0,0,1,5,-5z" stroke-width="3"></path><g id="node_text88" fill="black"><text id="kity_text_721" text-rendering="inherit" font-size="12" dy=".8em" y="1710.700007416308" x="572.5000135228038">任意金额充值</text></g></g><g id="minder_node89"><g id="node_expander88" style="cursor: pointer;" display="none"><path id="kity_path_732" fill="white" stroke="gray" d="M567.500013358891,1744.5000078305602A6,6,0,1,1,555.500013358891,1744.5000078305602A6,6,0,1,1,567.500013358891,1744.5000078305602"></path><path id="kity_path_733" fill="none" stroke="gray"></path></g><path id="node_outline89" fill="none" stroke="none" d="M572.5000135228038,1735.5000078305602h60a5,5,0,0,1,5,5v8a5,5,0,0,1,-5,5h-60a5,5,0,0,1,-5,-5v-8a5,5,0,0,1,5,-5z" stroke-width="3"></path><g id="node_text89" fill="black"><text id="kity_text_729" text-rendering="inherit" font-size="12" dy=".8em" y="1736.7000078037381" x="572.5000135228038">一分钱续费</text></g></g><g id="minder_node90"><g id="node_expander89" style="cursor: pointer;" display="none"><path id="kity_path_740" fill="white" stroke="gray" d="M567.500013358891,1770.5000082179904A6,6,0,1,1,555.500013358891,1770.5000082179904A6,6,0,1,1,567.500013358891,1770.5000082179904"></path><path id="kity_path_741" fill="none" stroke="gray"></path></g><path id="node_outline90" fill="none" stroke="none" d="M572.5000135228038,1761.5000082179904h60a5,5,0,0,1,5,5v8a5,5,0,0,1,-5,5h-60a5,5,0,0,1,-5,-5v-8a5,5,0,0,1,5,-5z" stroke-width="3"></path><g id="node_text90" fill="black"><text id="kity_text_737" text-rendering="inherit" font-size="12" dy=".8em" y="1762.7000081911683" x="572.5000135228038">一分钱购物</text></g></g><g id="minder_node91"><g id="node_expander90" style="cursor: pointer;" display="none"><path id="kity_path_748" fill="white" stroke="gray" d="M567.500013358891,1796.5000086054206A6,6,0,1,1,555.500013358891,1796.5000086054206A6,6,0,1,1,567.500013358891,1796.5000086054206"></path><path id="kity_path_749" fill="none" stroke="gray"></path></g><path id="node_outline91" fill="none" stroke="none" d="M572.5000135228038,1787.5000086054206h60a5,5,0,0,1,5,5v8a5,5,0,0,1,-5,5h-60a5,5,0,0,1,-5,-5v-8a5,5,0,0,1,5,-5z" stroke-width="3"></path><g id="node_text91" fill="black"><text id="kity_text_745" text-rendering="inherit" font-size="12" dy=".8em" y="1788.7000085785985" x="572.5000135228038">一分钱充值</text></g></g><g id="minder_node92"><g id="node_expander91" style="cursor: pointer;" display="none"><path id="kity_path_756" fill="white" stroke="gray" d="M493.5000122562051,1822.5000089928508A6,6,0,1,1,481.5000122562051,1822.5000089928508A6,6,0,1,1,493.5000122562051,1822.5000089928508"></path><path id="kity_path_757" fill="none" stroke="gray"></path></g><path id="node_outline92" fill="none" stroke="none" d="M498.50001242011786,1813.5000089928508h77a5,5,0,0,1,5,5v8a5,5,0,0,1,-5,5h-77a5,5,0,0,1,-5,-5v-8a5,5,0,0,1,5,-5z" stroke-width="3"></path><g id="node_text92" fill="black"><text id="kity_text_753" text-rendering="inherit" font-size="12" dy=".8em" y="1814.7000089660287" x="498.50001242011786">绕不完的Filter</text></g></g><g id="minder_node93"><g id="node_expander92" style="cursor: pointer;" display="none"><path id="kity_path_764" fill="white" stroke="gray" d="M493.5000122562051,1848.500009380281A6,6,0,1,1,481.5000122562051,1848.500009380281A6,6,0,1,1,493.5000122562051,1848.500009380281"></path><path id="kity_path_765" fill="none" stroke="gray"></path></g><path id="node_outline93" fill="none" stroke="none" d="M498.50001242011786,1839.500009380281h28a5,5,0,0,1,5,5v8a5,5,0,0,1,-5,5h-28a5,5,0,0,1,-5,-5v-8a5,5,0,0,1,5,-5z" stroke-width="3"></path><g id="node_text93" fill="black"><text id="kity_text_761" text-rendering="inherit" font-size="12" dy=".8em" y="1840.7000093534589" x="498.50001242011786">SSRF</text></g></g><g id="minder_node94"><g id="node_expander93" style="cursor: pointer;" display="none"><path id="kity_path_772" fill="white" stroke="gray" d="M493.5000122562051,1874.5000097677112A6,6,0,1,1,481.5000122562051,1874.5000097677112A6,6,0,1,1,493.5000122562051,1874.5000097677112"></path><path id="kity_path_773" fill="none" stroke="gray"></path></g><path id="node_outline94" fill="none" stroke="none" d="M498.50001242011786,1865.5000097677112h70a5,5,0,0,1,5,5v8a5,5,0,0,1,-5,5h-70a5,5,0,0,1,-5,-5v-8a5,5,0,0,1,5,-5z" stroke-width="3"></path><g id="node_text94" fill="black"><text id="kity_text_769" text-rendering="inherit" font-size="12" dy=".8em" y="1866.700009740889" x="498.50001242011786">推不动的SDL</text></g></g><g id="minder_node95"><g id="node_expander94" style="cursor: pointer;" display="none"><path id="kity_path_780" fill="white" stroke="gray" d="M493.5000122562051,1900.5000101551414A6,6,0,1,1,481.5000122562051,1900.5000101551414A6,6,0,1,1,493.5000122562051,1900.5000101551414"></path><path id="kity_path_781" fill="none" stroke="gray"></path></g><path id="node_outline95" fill="none" stroke="none" d="M498.50001242011786,1891.5000101551414h99a5,5,0,0,1,5,5v8a5,5,0,0,1,-5,5h-99a5,5,0,0,1,-5,-5v-8a5,5,0,0,1,5,-5z" stroke-width="3"></path><g id="node_text95" fill="black"><text id="kity_text_777" text-rendering="inherit" font-size="12" dy=".8em" y="1892.7000101283193" x="498.50001242011786">失效的“云WAF”</text></g></g><g id="minder_node96"><g id="node_expander95" style="cursor: pointer;" display="none"><path id="kity_path_788" fill="white" stroke="gray" d="M493.5000122562051,1926.5000105425715A6,6,0,1,1,481.5000122562051,1926.5000105425715A6,6,0,1,1,493.5000122562051,1926.5000105425715"></path><path id="kity_path_789" fill="none" stroke="gray"></path></g><path id="node_outline96" fill="none" stroke="none" d="M498.50001242011786,1917.5000105425715h84a5,5,0,0,1,5,5v8a5,5,0,0,1,-5,5h-84a5,5,0,0,1,-5,-5v-8a5,5,0,0,1,5,-5z" stroke-width="3"></path><g id="node_text96" fill="black"><text id="kity_text_785" text-rendering="inherit" font-size="12" dy=".8em" y="1918.7000105157495" x="498.50001242011786">事件响应不及时</text></g></g><g id="minder_node97"><g id="node_expander96" style="cursor: pointer;" display="none"><path id="kity_path_796" fill="white" stroke="gray" d="M493.5000122562051,1952.5000109300017A6,6,0,1,1,481.5000122562051,1952.5000109300017A6,6,0,1,1,493.5000122562051,1952.5000109300017"></path><path id="kity_path_797" fill="none" stroke="gray"></path></g><path id="node_outline97" fill="none" stroke="none" d="M498.50001242011786,1943.5000109300017h72a5,5,0,0,1,5,5v8a5,5,0,0,1,-5,5h-72a5,5,0,0,1,-5,-5v-8a5,5,0,0,1,5,-5z" stroke-width="3"></path><g id="node_text97" fill="black"><text id="kity_text_793" text-rendering="inherit" font-size="12" dy=".8em" y="1944.7000109031796" x="498.50001242011786">漏洞组合利用</text></g></g><g id="minder_node98"><g id="node_expander97" style="cursor: pointer;" display="none"><path id="kity_path_804" fill="white" stroke="gray" d="M493.5000122562051,1978.500011317432A6,6,0,1,1,481.5000122562051,1978.500011317432A6,6,0,1,1,493.5000122562051,1978.500011317432"></path><path id="kity_path_805" fill="none" stroke="gray"></path></g><path id="node_outline98" fill="none" stroke="none" d="M498.50001242011786,1969.500011317432h48a5,5,0,0,1,5,5v8a5,5,0,0,1,-5,5h-48a5,5,0,0,1,-5,-5v-8a5,5,0,0,1,5,-5z" stroke-width="3"></path><g id="node_text98" fill="black"><text id="kity_text_801" text-rendering="inherit" font-size="12" dy=".8em" y="1970.7000112906098" x="498.50001242011786">人员意识</text></g></g><g id="minder_node99"><g id="node_expander98" style="cursor: pointer;" display="none"><path id="kity_path_812" fill="white" stroke="gray" d="M493.5000122562051,2004.5000117048621A6,6,0,1,1,481.5000122562051,2004.5000117048621A6,6,0,1,1,493.5000122562051,2004.5000117048621"></path><path id="kity_path_813" fill="none" stroke="gray"></path></g><path id="node_outline99" fill="none" stroke="none" d="M498.50001242011786,1995.5000117048621h48a5,5,0,0,1,5,5v8a5,5,0,0,1,-5,5h-48a5,5,0,0,1,-5,-5v-8a5,5,0,0,1,5,-5z" stroke-width="3"></path><g id="node_text99" fill="black"><text id="kity_text_809" text-rendering="inherit" font-size="12" dy=".8em" y="1996.70001167804" x="498.50001242011786">办公网络</text></g></g></g></g></svg>